<?xml version="1.0"?>
<svg xmlns="http://www.w3.org/2000/svg" viewBox="0 0 50 50" enable-background="new 0 0 50 50">
    <path style="text-indent:0;text-align:start;line-height:normal;text-transform:none;block-progression:tb;-inkscape-font-specification:Bitstream Vera Sans" d="M 14.3125 2 L 14.0625 2.65625 C 14.0625 2.65625 11 10.75 11 19 C 11 26.227495 16.956986 31.504437 24 31.96875 L 24 38.09375 C 24 39.041953 23.554991 39.841084 22.75 40.59375 C 21.945009 41.346416 20.77749 41.99691 19.59375 42.5 C 17.22627 43.506179 14.84375 43.90625 14.84375 43.90625 A 1.0001 1.0001 0 0 0 14.8125 43.90625 C 14.092498 44.05025 13.422671 44.421079 12.90625 44.9375 C 12.389829 45.453921 12 46.166667 12 47 A 1.0001 1.0001 0 0 0 13 48 L 37 48 A 1.0001 1.0001 0 0 0 38 47 C 38 46.166667 37.610171 45.453921 37.09375 44.9375 C 36.577329 44.421079 35.907502 44.05025 35.1875 43.90625 A 1.0001 1.0001 0 0 0 35.15625 43.90625 C 35.15625 43.90625 32.77373 43.506179 30.40625 42.5 C 29.22251 41.99691 28.054991 41.346416 27.25 40.59375 C 26.445009 39.841084 26 39.041953 26 38.09375 L 26 31.96875 C 33.043014 31.504437 39 26.227495 39 19 C 39 10.75 35.9375 2.65625 35.9375 2.65625 L 35.6875 2 L 35 2 L 15 2 L 14.3125 2 z M 15.75 4 L 34.25 4 C 34.455952 4.5733031 35.426196 7.3163867 36.15625 11 A 1.0001 1.0001 0 0 0 36.09375 11 L 13.84375 11 C 14.573804 7.3163867 15.544048 4.5733031 15.75 4 z M 36.46875 12.9375 A 1.0001 1.0001 0 0 0 36.5 12.9375 C 36.798811 14.841284 37 16.889945 37 19 C 37 25.428571 31.52381 30 25 30 C 18.47619 30 13 25.428571 13 19 C 13 16.912513 13.206384 14.887021 13.5 13 A 1.001098 1.001098 0 0 0 13.6875 13 L 36.09375 13 A 1.0001 1.0001 0 0 0 36.46875 12.9375 z M 25 40.90625 C 25.274784 41.303095 25.525502 41.704469 25.875 42.03125 C 26.945009 43.031709 28.27749 43.78434 29.59375 44.34375 C 32.211829 45.456433 34.784305 45.870255 34.8125 45.875 C 34.812656 45.875026 34.84375 45.875 34.84375 45.875 C 34.9098 45.88974 34.960506 45.9724 35.03125 46 L 14.96875 46 C 15.03949 45.9724 15.0902 45.88974 15.15625 45.875 C 15.15625 45.875 15.18734 45.875026 15.1875 45.875 C 15.2157 45.8703 17.788171 45.456433 20.40625 44.34375 C 21.72251 43.78434 23.054991 43.031709 24.125 42.03125 C 24.474498 41.704469 24.725216 41.303095 25 40.90625 z" overflow="visible" enable-background="accumulate" font-family="Bitstream Vera Sans"/>
</svg>
