<?xml version="1.0"?>
<svg xmlns="http://www.w3.org/2000/svg" version="1" viewBox="0 0 26 26" enable-background="new 0 0 26 26">
    <path style="text-indent:0;text-align:start;line-height:normal;text-transform:none;block-progression:tb;-inkscape-font-specification:Bitstream Vera Sans" d="M 12.90625 -0.03125 A 1.0001 1.0001 0 0 0 12.78125 0 A 1.0001 1.0001 0 0 0 12 1 L 12 1.09375 A 1.0001 1.0001 0 0 0 12 1.1875 L 12 2.03125 C 5.2678015 2.4053848 0 6.5416892 0 11.5 C 0 12.9 1.19375 14 2.59375 14 C 3.446875 14 4.2955353 13.481671 4.78125 12.84375 C 5.59997 13.552897 6.6437419 14 7.8125 14 C 8.9652812 14 10.00515 13.567002 10.8125 12.875 C 11.101733 13.245226 11.514323 13.576171 12 13.78125 L 12 23 L 12 25 L 12 25.3125 L 11.09375 23 C 6.09375 23 3 23.8 3 24.5 C 3 25.3 6.9 26 13 26 C 19.1 26 23 25.3 23 24.5 C 23 23.745705 19.509252 23.073568 14 23 L 14 13.78125 C 14.485677 13.576171 14.898267 13.245226 15.1875 12.875 C 15.99485 13.567002 17.034719 14 18.1875 14 C 19.340281 14 20.373098 13.567002 21.1875 12.875 C 21.651361 13.511575 22.4875 14 23.40625 14 C 24.80625 14 26 12.9 26 11.5 C 26 6.5416892 20.732199 2.4053848 14 2.03125 L 14 1.25 A 1.0001 1.0001 0 0 0 14 1.09375 L 14 1 A 1.0001 1.0001 0 0 0 12.90625 -0.03125 z M 12.78125 2.09375 A 1.0001 1.0001 0 0 0 12.8125 2.09375 L 12.90625 2.09375 C 12.513361 2.4745889 10.698618 4.4692807 10.40625 9.3125 A 1.0001 1.0001 0 0 0 10.40625 9.34375 C 10.404407 9.3750951 10.407963 9.4059197 10.40625 9.4375 A 1.0001 1.0001 0 0 0 10.40625 9.5 C 10.405742 9.5098892 10.406745 9.5213379 10.40625 9.53125 C 10.38909 10.856786 9.2678846 12 7.8125 12 C 6.6391666 12 5.6872167 11.263931 5.34375 10.28125 C 6.2910113 5.044595 11.826868 2.4963898 12.78125 2.09375 z M 13.0625 2.09375 A 1.0001 1.0001 0 0 0 13.125 2.09375 L 13.21875 2.09375 A 1.0001 1.0001 0 0 0 13.25 2.09375 C 14.330635 2.4514022 19.802021 4.5165468 20.6875 10.21875 C 20.365012 11.233382 19.3865 12 18.1875 12 C 16.835064 12 15.782486 11.015883 15.625 9.8125 C 15.452065 4.4685828 13.256476 2.278506 13.0625 2.09375 z" overflow="visible" enable-background="accumulate" font-family="Bitstream Vera Sans"/>
</svg>
