<?xml version="1.0" encoding="iso-8859-1"?>
<!-- Generator: Adobe Illustrator 19.0.0, SVG Export Plug-In . SVG Version: 6.00 Build 0)  -->
<svg version="1.1" id="Capa_1" xmlns="http://www.w3.org/2000/svg" xmlns:xlink="http://www.w3.org/1999/xlink" x="0px" y="0px"
	 viewBox="0 0 457.481 457.481" style="enable-background:new 0 0 457.481 457.481;" xml:space="preserve">
<path id="XMLID_638_" d="M415.393,208.547c-0.235-0.305-0.492-0.598-0.771-0.877c-0.28-0.28-0.573-0.537-0.878-0.772
	c-24.428-24.045-57.245-39.598-93.6-41.815V52.119h41.067c3.931,0,7.406-2.551,8.585-6.3l10.729-34.116
	c1.491-4.742-1.144-9.794-5.885-11.286c-4.744-1.493-9.794,1.144-11.286,5.885l-8.748,27.816h-86.923l-8.748-27.816
	c-1.49-4.741-6.541-7.378-11.286-5.885c-4.741,1.491-7.376,6.544-5.885,11.286l10.729,34.116c1.179,3.749,4.655,6.3,8.585,6.3
	h41.064v77.699c-68.064,3.34-126.395,44.333-154.547,102.543V151.17h14.722c4.971,0,9-4.029,9-9s-4.029-9-9-9h-47.444
	c-4.971,0-9,4.029-9,9s4.029,9,9,9h14.722c0,0,0,155.833,0,159.975c0,25.873,5.173,50.503,15.398,73.413l-17.753-0.002
	c-4.384-31.012-31.102-54.943-63.305-54.943c-35.254,0-63.936,28.681-63.936,63.935c0,35.254,28.681,63.935,63.936,63.935
	c32.196,0,58.91-23.923,63.302-54.926l32.272,0.004h0.001c3.181,0,6.126-1.68,7.746-4.418c1.62-2.738,1.674-6.129,0.141-8.917
	c-13.14-23.905-19.802-50.174-19.802-78.079c0-87.159,68.539-158.612,154.547-163.303v17.24
	c-36.359,2.218-69.177,17.771-93.605,41.821c-0.302,0.233-0.593,0.489-0.87,0.766c-0.277,0.277-0.533,0.568-0.766,0.87
	c-26.021,26.43-42.094,62.674-42.094,102.605c0,39.926,16.077,76.174,42.092,102.604c0.234,0.303,0.49,0.595,0.768,0.873
	c0.278,0.278,0.569,0.534,0.873,0.768c26.429,26.015,62.677,42.092,102.603,42.092s76.168-16.072,102.598-42.087
	c0.306-0.235,0.6-0.493,0.879-0.773c0.28-0.28,0.538-0.574,0.773-0.88c26.015-26.429,42.085-62.67,42.085-102.596
	S441.408,234.977,415.393,208.547z M59.703,402.546l49.282,0.006c-4.197,21.032-22.801,36.929-45.048,36.929
	c-25.329,0-45.936-20.606-45.936-45.935s20.606-45.935,45.936-45.935c22.252,0,40.859,15.903,45.051,36.941l-49.283-0.006
	c0,0,0,0-0.001,0c-4.97,0-9,4.029-9,8.999S54.732,402.546,59.703,402.546z M439.168,302.145H338.044
	c-0.422-1.259-0.931-2.48-1.519-3.654l71.466-71.465C425.755,247.449,437.176,273.514,439.168,302.145z M320.144,183.121
	c28.631,1.992,54.698,13.415,75.12,31.178l-71.466,71.465c-1.174-0.588-2.394-1.096-3.654-1.519V183.121z M302.144,183.121v101.124
	c-1.259,0.422-2.479,0.931-3.653,1.519l-71.466-71.466C247.447,196.535,273.513,185.112,302.144,183.121z M214.297,227.025
	l71.466,71.466c-0.588,1.174-1.096,2.394-1.519,3.654H183.12C185.112,273.514,196.534,247.448,214.297,227.025z M183.12,320.145
	h101.124c0.422,1.259,0.931,2.48,1.519,3.653l-71.466,71.466C196.534,374.842,185.112,348.776,183.12,320.145z M302.144,439.169
	c-28.631-1.992-54.697-13.414-75.119-31.177l71.465-71.466c1.174,0.588,2.394,1.096,3.654,1.519V439.169z M311.144,321.509
	c-5.714,0-10.363-4.649-10.363-10.364s4.649-10.364,10.363-10.364s10.364,4.649,10.364,10.364S316.858,321.509,311.144,321.509z
	 M320.144,439.169V338.045c1.26-0.422,2.479-0.931,3.654-1.519l71.466,71.466C374.841,425.755,348.775,437.178,320.144,439.169z
	 M407.992,395.264l-71.466-71.466c0.587-1.174,1.096-2.395,1.519-3.653h101.124C437.176,348.776,425.755,374.841,407.992,395.264z"
	/>
<g>
</g>
<g>
</g>
<g>
</g>
<g>
</g>
<g>
</g>
<g>
</g>
<g>
</g>
<g>
</g>
<g>
</g>
<g>
</g>
<g>
</g>
<g>
</g>
<g>
</g>
<g>
</g>
<g>
</g>
</svg>
