<svg id="Layer_1" data-name="Layer 1" xmlns="http://www.w3.org/2000/svg" viewBox="0 0 79.27 58.8"><title>cat1</title><path d="M9.07,7.63S8.71,7,10.65,6.4a11.05,11.05,0,0,0,2.82-1.94A5.92,5.92,0,0,1,18.94,2.7L20.52.23s.53-1.15,1.59,1.67l.71,2.38s2.47,3,2.47,6.17c0,0,.26,8.11,4.05,9.52,0,0,18.07,5.38,23.44,20.18,0,0,.62,4.58,3.79,5.64,0,0,11.46,5.73,21.42,1.06,0,0,2.47-1.59,1.94.79,0,0-3.35,5.11-14.37,4.05a34.63,34.63,0,0,1-8.81-1.06,4.31,4.31,0,0,0-4.41,1.59s-1.15,2.56-3.08,2.91c0,0-1.06.53-.53,1.41,0,0,1.06,2.29-2.38,2.2h-10s-5.2.44-1.85-2.65l-6.35.09s-5.2.62-3.35-1.85c0,0,1.32-2.2,8.81-1.15a7.32,7.32,0,0,1-3.26-4.49s-.79-3.61-7.05-5.91a41.77,41.77,0,0,1-3.61,6.26s-2.47,5.2-2.38,7.67a2.69,2.69,0,0,1-3,2.05l-2.73,0s-3.08-.84-.35-2.69c0,0,1.94,0,2.91-4.67l1.41-8.28s.71-2.73-1.67-7.23c0,0-3.26-5.91-3.44-8.73,0,0-3.61-2.29-3.35-7.84,0,0-.26-3.35-2.64-3.7,0,0-5.11-.26-3.26-3.61,0,0,2.73-2.2,6.08,1.15,0,0,3.17,2.82,3.61,5l2.12-2.56a3,3,0,0,0-.88-2.73S8.85,11.15,9.15,9Z" transform="translate(-0.73 0)"/></svg>