<svg id="Layer_1" data-name="Layer 1" xmlns="http://www.w3.org/2000/svg" viewBox="0 0 64.29 58.73">
<title>cat2</title>
fill:#fff;
<path d="M43.27,4.71s5.62-2.22,10.42,0A14.47,14.47,0,0,1,58.79.39s3.47-2.1,3.27,6.32v3s-.11,4,1.11,5.15c0,0,4,9.59,0,16.37A33.82,33.82,0,0,1,65,39.92s.48,9.59-1.57,12.16c0,0-6.53,8.07-15.93,5,0,0-.51,2.81-6.74,1.17,0,0-17.87-3.39-20.52-7.84,0,0-.92-1.29-6.23-2.81,0,0-11.44-.94-12.25-8.65,0,0-4.59-13.45,5.92-22,0,0,14.6-13,27.26-3.27a24.24,24.24,0,0,1-.1-11.81L35.1,1s1.12-2.34,3.06.47C38.17,1.44,40.25,5.49,43.27,4.71Z" transform="translate(-0.71 -0.06)"/></svg>