<svg id="Layer_1" data-name="Layer 1" xmlns="http://www.w3.org/2000/svg" viewBox="0 0 30.57 59.13"><title>cat3</title><path d="M25.85,2.39a8,8,0,0,0-6.05,0l-3-2.08s-2-1.28-1.48,2.08l.34,3.09L15.7,6.9s0,4.3.81,5.18A2.68,2.68,0,0,1,16,13.89a19.64,19.64,0,0,0-1.68,3.16S1.71,23.44,2.11,44.49v5.58s-2.81,3.77.55,6.79c0,0,4.24,3.43,12.1,1.55a1.17,1.17,0,0,0,.67-1.61L17,56.66s.4,3.21,4.71,2.31c0,0,2,.38,2.29-1.1a3.86,3.86,0,0,0,3.36.67s2.56,0,.74-3.63L28,49.8s4.44-3.83,3.23-7.53c0,0-.87-1.48-1.61.34,0,0-.74,1.55-1.41,1.61V39.38S28.4,34,29.75,32c0,0,4-9.21.2-14.39,0,0-1.14-3.29-.2-5.92a22.77,22.77,0,0,0,.07-6l.13-5s-.2-1.88-2.35.47Z" transform="translate(-1 0)"/></svg>