<?xml version="1.0"?>
<svg xmlns="http://www.w3.org/2000/svg" viewBox="0 0 24 24">
    <path d="M 5.3125 2 L 5.3125 4 C 6.6125 4 7.2 4.89375 7.5 5.59375 C 4.2 6.09375 1.70625 8.80625 1.40625 12.40625 C 0.60625 12.80625 0 13.7125 0 14.8125 C 0 15.9125 0.6875 16.8875 1.6875 17.1875 C 2.2875 18.3875 4.1875 21 8.6875 21 C 9.9875 21 11.00625 20.8 11.90625 20.5 C 12.90625 20.9 14.0125 21.09375 15.3125 21.09375 C 19.9125 21.09375 21.7125 18.5125 22.3125 17.3125 C 23.3125 17.0125 24 16.10625 24 14.90625 C 24 13.80625 23.39375 12.9 22.59375 12.5 C 22.29375 9 19.8875 6.4125 16.6875 5.8125 C 16.8875 5.5125 17.30625 5.1875 17.90625 5.1875 L 17.90625 3.1875 C 16.90625 3.1875 16.09375 3.59375 15.59375 4.09375 C 14.89375 2.99375 13.80625 2 11.90625 2 L 11.90625 4 C 13.30625 4 13.89375 5.0125 14.09375 5.8125 C 13.39375 5.9125 12.69375 6.10625 12.09375 6.40625 C 11.49375 6.10625 10.8875 5.8875 10.1875 5.6875 C 10.3875 5.3875 10.8125 5.1875 11.3125 5.1875 L 11.3125 3.1875 C 10.3125 3.1875 9.5 3.59375 9 4.09375 C 8.3 2.99375 7.2125 2 5.3125 2 z M 15.3125 7.5 C 18.8125 7.5 20.59375 10.2875 20.59375 13.1875 L 20.59375 14.1875 L 21.59375 14.1875 C 21.89375 14.1875 22 14.4875 22 14.6875 C 22 15.0875 21.89375 15.3125 21.59375 15.3125 L 20.90625 15.3125 L 20.6875 16 C 20.6875 16 19.7125 19 15.3125 19 C 15.0125 19 14.6125 19.00625 14.3125 18.90625 C 15.0125 18.20625 15.4875 17.5 15.6875 17 C 16.6875 16.7 17.40625 15.79375 17.40625 14.59375 C 17.40625 14.18125 17.303906 13.822852 17.15625 13.5 C 17.330861 13.792004 17.635035 14 18 14 C 18.552285 14 19 13.552285 19 13 C 19 12.447715 18.552285 12 18 12 C 17.447715 12 17 12.447715 17 13 C 17 13.138071 17.043147 13.255362 17.09375 13.375 C 16.842044 12.899511 16.46 12.5425 16 12.3125 C 15.8 10.5125 15.1 8.8875 14 7.6875 C 14.4 7.5875 14.9125 7.5 15.3125 7.5 z M 8.6875 7.59375 C 12.1875 7.59375 14 10.4125 14 13.3125 L 14 14.3125 L 15 14.3125 C 15.3 14.3125 15.40625 14.6125 15.40625 14.8125 C 15.40625 15.0125 15.3 15.3125 15 15.3125 L 14.3125 15.3125 L 14.09375 16 C 14.09375 16.1 12.9875 19 8.6875 19 C 4.3875 19 3.4125 16.1 3.3125 16 L 3.09375 15.3125 L 2.40625 15.3125 C 2.20625 15.3125 2 15.0125 2 14.8125 C 2 14.6125 2.10625 14.3125 2.40625 14.3125 L 3.40625 14.3125 L 3.40625 13.3125 C 3.40625 10.5125 5.1875 7.59375 8.6875 7.59375 z M 6 12 C 5.4477153 12 5 12.447715 5 13 C 5 13.552285 5.4477153 14 6 14 C 6.5522847 14 7 13.552285 7 13 C 7 12.447715 6.5522847 12 6 12 z M 11 12 C 10.447715 12 10 12.447715 10 13 C 10 13.552285 10.447715 14 11 14 C 11.552285 14 12 13.552285 12 13 C 12 12.447715 11.552285 12 11 12 z"/>
</svg>
