<?xml version="1.0" encoding="iso-8859-1"?>
<!-- Generator: Adobe Illustrator 19.0.0, SVG Export Plug-In . SVG Version: 6.00 Build 0)  -->
<svg version="1.1" id="Capa_1" xmlns="http://www.w3.org/2000/svg" xmlns:xlink="http://www.w3.org/1999/xlink" x="0px" y="0px"
	 viewBox="0 0 512 512" style="enable-background:new 0 0 512 512;" xml:space="preserve">
<g>
	<g>
		<path d="M256,0C114.844,0,0,114.844,0,256s114.844,256,256,256s256-114.844,256-256S397.156,0,256,0z M256,490.667
			C126.604,490.667,21.333,385.396,21.333,256c0-60.866,23.488-116.212,61.628-157.956l87.706,87.706v174.365
			C170.667,408.573,208.948,448,256,448s85.333-39.427,85.333-87.885v-3.698l72.622,72.622
			C372.212,467.178,316.866,490.667,256,490.667z M245.333,260.417v1c-17.835-17.395-40.389-23.447-53.333-25.559v-28.775
			L245.333,260.417z M192,176.917v-4.703c15.507,3.111,42.889,12.875,53.333,43.293v14.743L192,176.917z M245.333,300.84v45.91
			c-17.835-17.395-40.389-23.447-53.333-25.559v-63.645C207.507,260.658,234.889,270.422,245.333,300.84z M245.333,386.173v39.372
			C215.128,420.228,192,393.014,192,360.115V342.88C207.507,345.991,234.889,355.755,245.333,386.173z M272.06,256.977l-5.393-5.393
			v-36.077c10.444-30.418,37.827-40.182,53.333-43.293v63.645C308.307,237.766,288.897,243.18,272.06,256.977z M320,257.547v47.37
			l-32.704-32.704C298.611,263.49,311.143,259.323,320,257.547z M272.728,287.811l35.93,35.93
			c-12.684,3.414-28.616,9.965-41.991,23.009v-45.91C268.319,296.027,270.329,291.645,272.728,287.811z M320,342.88v17.234
			c0,32.9-23.128,60.113-53.333,65.431v-39.372C277.111,355.755,304.493,345.991,320,342.88z M429.039,413.956l-87.706-87.706V96
			c0-5.896-4.771-10.667-10.667-10.667C324.771,85.333,320,90.104,320,96v54.525c-12.944,2.112-35.499,8.164-53.333,25.559V74.667
			C266.667,68.771,261.896,64,256,64s-10.667,4.771-10.667,10.667v101.417c-17.835-17.395-40.389-23.447-53.333-25.559V96
			c0-5.896-4.771-10.667-10.667-10.667c-5.896,0-10.667,4.771-10.667,10.667v59.583L98.044,82.961
			C139.788,44.822,195.134,21.333,256,21.333c129.396,0,234.667,105.271,234.667,234.667
			C490.667,316.866,467.178,372.212,429.039,413.956z"/>
	</g>
</g>
<g>
</g>
<g>
</g>
<g>
</g>
<g>
</g>
<g>
</g>
<g>
</g>
<g>
</g>
<g>
</g>
<g>
</g>
<g>
</g>
<g>
</g>
<g>
</g>
<g>
</g>
<g>
</g>
<g>
</g>
</svg>
