<?xml version="1.0"?>
<svg xmlns="http://www.w3.org/2000/svg" viewBox="0 0 50 50">
    <path d="M 42.011719 1.9824219 C 37.713435 1.9824219 33.099213 2.3577266 29.412109 4.0527344 C 25.725006 5.7477421 23 8.9797164 23 14.064453 C 23 17.545134 24.793153 20.197261 25.324219 20.914062 C 24.922131 22.133345 24.603495 23.36148 24.388672 24.585938 C 23.671154 23.55432 22.758203 22.557764 21.728516 21.617188 A 1.0001 1.0001 0 0 0 21.732422 21.535156 C 21.732422 21.535156 21.760812 19.008291 20.775391 16.421875 C 20.282682 15.128667 19.527839 13.79158 18.332031 12.755859 C 17.136223 11.720139 15.488998 11.025391 13.435547 11.025391 C 8.2546971 11.025391 3.5566406 14.103516 3.5566406 14.103516 A 1.0001 1.0001 0 0 0 3.1347656 15.220703 C 3.1347656 15.220703 3.8102778 17.606404 5.3359375 20.009766 C 6.8615972 22.413128 9.3654389 25 13 25 C 15.491928 25 17.470703 23.886719 17.470703 23.886719 A 1.0001 1.0001 0 1 0 16.507812 22.134766 C 16.507812 22.134766 14.890072 23 13 23 C 10.321561 23 8.3734809 21.061138 7.0253906 18.9375 C 6.0658967 17.426015 5.5926487 16.19273 5.3320312 15.441406 C 6.2470957 14.909345 9.6208227 13.025391 13.435547 13.025391 C 15.058095 13.025391 16.161808 13.521298 17.023438 14.267578 C 17.885067 15.013858 18.493709 16.051974 18.90625 17.134766 C 19.276664 18.106987 19.465401 19.064471 19.578125 19.853516 C 16.970716 17.937431 13.953115 16.460618 11.158203 16.011719 A 1.0001 1.0001 0 0 0 10.958984 15.998047 A 1.0001 1.0001 0 0 0 10.841797 17.988281 C 13.566197 18.425856 16.975503 20.203609 19.607422 22.412109 C 21.772101 24.228539 23.329212 26.351482 23.820312 28 L 3 28 C 2.447 28 2 28.447 2 29 C 2 36.616 6.515 43.181984 13 46.208984 L 13 47 C 13 48.103 13.897 49 15 49 L 35 49 C 36.103 49 37 48.103 37 47 L 37 46.208984 C 43.485 43.181984 48 36.616 48 29 C 48 28.447 47.553 28 47 28 L 26.029297 28 C 26.329381 21.084902 29.749955 13.303096 37.496094 8.8671875 A 1.0001 1.0001 0 0 0 36.947266 6.9941406 A 1.0001 1.0001 0 0 0 36.503906 7.1328125 C 31.535645 9.9779406 28.196083 14.094975 26.226562 18.541016 C 25.648018 17.445788 25 15.839735 25 14.064453 C 25 9.6491901 27.045197 7.3406329 30.246094 5.8691406 C 33.096775 4.5586466 36.90018 4.1562646 40.644531 4.0683594 C 40.363965 5.1935229 40.280226 6.2940341 40.421875 7.3183594 C 40.628676 8.8138231 41 10.232829 41 11.912109 C 41 16.508103 38.136179 18.894789 35.078125 20.320312 C 32.020071 21.745836 28.919922 22.003906 28.919922 22.003906 A 1.0001 1.0001 0 1 0 29.080078 23.996094 C 29.080078 23.996094 32.479929 23.73729 35.921875 22.132812 C 39.363821 20.528337 43 17.370115 43 11.912109 C 43 9.9453906 42.585543 8.367755 42.402344 7.0429688 C 42.219145 5.7181825 42.219224 4.7046914 42.892578 3.4570312 A 1.0001 1.0001 0 0 0 42.011719 1.9824219 z"/>
</svg>
