<?xml version="1.0" encoding="iso-8859-1"?>
<!-- Generator: Adobe Illustrator 19.0.0, SVG Export Plug-In . SVG Version: 6.00 Build 0)  -->
<svg version="1.1" id="Capa_1" xmlns="http://www.w3.org/2000/svg" xmlns:xlink="http://www.w3.org/1999/xlink" x="0px" y="0px"
	 viewBox="0 0 512.001 512.001" style="enable-background:new 0 0 512.001 512.001;" xml:space="preserve">
<g>
	<g>
		<path d="M501.563,124.081c-7.06-8.574-17.036-13.885-28.091-14.957c-22.822-2.214-43.184,14.557-45.395,37.376v0.001
			c-0.321,3.314-0.241,6.604,0.206,9.819l-48.508,27.116c-14.734-20.896-33.592-38.358-55.136-51.459l27.244-49.203
			c1.889,0.262,3.784,0.402,5.677,0.402c6.3,0,12.564-1.45,18.378-4.321c9.958-4.918,17.405-13.421,20.968-23.94
			c3.563-10.519,2.817-21.797-2.102-31.755C384.649,2.606,359.667-5.858,339.109,4.297c-20.556,10.154-29.018,35.138-18.864,55.694
			c1.474,2.984,3.277,5.738,5.353,8.235l-27.824,50.253c-32.91-13.307-69.982-17.29-107.241-9.365
			C91.063,130.277,27.356,228.417,48.517,327.885c2.621,12.319,6.435,24.184,11.341,35.478L0.953,396.291l14.66,26.225
			l58.439-32.668c12.364,19.097,28.281,35.838,47.195,49.405l-32.222,58.197l26.284,14.552l31.688-57.23
			C172.5,467.473,200.288,474,228.539,474c12.878,0,25.856-1.356,38.748-4.099c48.185-10.251,89.493-38.652,116.316-79.973
			c26.823-41.32,35.949-90.613,25.699-138.797c-3.144-14.775-7.998-28.754-14.29-41.791l47.933-26.795
			c6.346,5.276,14.113,8.539,22.509,9.353c1.367,0.132,2.729,0.198,4.084,0.198c9.609,0,18.841-3.298,26.354-9.485
			c8.574-7.059,13.886-17.036,14.957-28.089C511.921,143.467,508.623,132.656,501.563,124.081z M352.414,31.233
			c1.639-0.809,3.377-1.192,5.091-1.192c4.254,0,8.354,2.36,10.362,6.425c1.365,2.763,1.572,5.892,0.584,8.811
			c-0.988,2.918-3.054,5.278-5.818,6.642c-2.761,1.365-5.892,1.573-8.81,0.584c-2.918-0.988-5.278-3.054-6.642-5.817
			C344.364,40.983,346.711,34.051,352.414,31.233z M310.08,158.276c16.732,10.355,31.488,23.874,43.297,39.92l-57.267,32.013
			l-16.941-16.105L310.08,158.276z M228.944,135.105c18.794,0,37.098,3.464,54.148,9.888l-26.422,47.721l-57.523-54.683
			C209.143,136.065,219.105,135.105,228.944,135.105z M144.848,419.002c-34.589-22.454-58.364-57.033-66.945-97.368
			c-3.248-15.267-4.098-30.494-2.823-45.297l174.764,166.139C213.134,447.557,176.242,439.383,144.848,419.002z M284.186,433.672
			L82.129,241.587c5.259-16.065,13.069-30.984,22.96-44.27L327.245,408.51C314.463,419.086,299.956,427.64,284.186,433.672z
			 M348.433,387.198L125.284,175.061c12.08-10.953,25.918-20.026,41.09-26.732l206.688,196.486
			C367.099,360.317,358.736,374.592,348.433,387.198z M381.772,311.644l-62.862-59.761l49.823-27.852
			c4.89,10.446,8.683,21.598,11.183,33.351C383.773,275.512,384.342,293.829,381.772,311.644z M480.946,151.623
			c-0.297,3.068-1.771,5.835-4.149,7.793c-2.379,1.959-5.378,2.875-8.446,2.577c-3.067-0.296-5.834-1.771-7.793-4.15
			c-1.958-2.378-2.873-5.378-2.577-8.444c0.614-6.331,6.246-10.994,12.595-10.371c3.067,0.297,5.835,1.772,7.793,4.15
			C480.328,145.558,481.243,148.556,480.946,151.623z"/>
	</g>
</g>
<g>
</g>
<g>
</g>
<g>
</g>
<g>
</g>
<g>
</g>
<g>
</g>
<g>
</g>
<g>
</g>
<g>
</g>
<g>
</g>
<g>
</g>
<g>
</g>
<g>
</g>
<g>
</g>
<g>
</g>
</svg>
