<?xml version="1.0" encoding="utf-8"?>
<!-- Generator: Adobe Illustrator 21.0.2, SVG Export Plug-In . SVG Version: 6.00 Build 0)  -->
<svg version="1.1" id="Layer_1" xmlns="http://www.w3.org/2000/svg" xmlns:xlink="http://www.w3.org/1999/xlink" x="0px" y="0px"
	 viewBox="0 0 160.8 160.8" style="enable-background:new 0 0 160.8 160.8;" xml:space="preserve">
<style type="text/css">
	.st0{fill:#FFFFFF;stroke:#000000;stroke-width:8.5039;stroke-miterlimit:10;}
	.st1{fill:#FFFFFF;stroke:#000000;stroke-width:2.8346;stroke-miterlimit:10;}
	.st2{enable-background:new    ;}
</style>
<title>kosher</title>
<circle class="st0" cx="80.4" cy="80.4" r="75.5"/>
<circle class="st1" cx="80.4" cy="80.4" r="61.6"/>
<g class="st2">
	<path d="M56.8,91.7c-1.4,3.2-3.5,6-6.3,8.3l-0.2-16c0-4.3-1.8-6.4-5.3-6.4H33.4c1.7-4.9,4.4-9.4,8-13.3c0.1,1.3,0.1,2.2,0.2,2.5
		c0.1,0.8,0.4,1.5,0.7,2.1h7.3c2.7,0,4.6,1.1,5.9,3.2c0.8,1.5,1.3,3.3,1.3,5.4V91.7z"/>
	<path d="M97.3,76.2c0.1,4.3-0.7,8.2-2.5,11.7c-1.7,3.4-4.3,6.1-7.9,8.2c-3.4,2-6.9,3-10.5,3c-2,0-3.3-0.4-4.1-1.2
		c-0.5-0.5-1.1-1.8-1.7-3.8l-4.9-15.1c-0.8-2.5-2.2-4.8-4-6.7l6.5-7.6c1.2,2,2.6,5.6,4.2,10.8l2.2,7.1c1.8-1.3,2.6-2.9,2.6-4.9
		c0-1.2-0.5-3.2-1.4-5.8l6.4-7.3c1,3.4,1.4,6.1,1.4,8.3c0,5.1-2.6,9.6-7.9,13.7l0.8,2.9c0.2,0.8,0.9,1.2,2,1.2c2,0,4.1-0.5,6.5-1.5
		c2.7-1.2,4.5-2.6,5.3-4.2c0.2-0.8,0.3-1.8,0.3-2.9c0-3-0.6-6.2-2.1-9.7l6.5-7.9C96.5,68.5,97.3,72.3,97.3,76.2z"/>
	<path d="M127.6,81.2c0,4.7-2.1,10.3-6.2,16.8H102l4-8.6h10.9c2.2,0,3.3-1.6,3.3-4.9c0-1.8-0.4-3.4-1.1-4.6c-0.8-1.4-2-2.1-3.4-2.1
		h-13.1c1.7-4.9,4.3-9.2,7.7-13.1c0,1.9,0.2,3.4,0.7,4.5h7.1c3,0,5.4,1.3,7.1,4C126.8,75.2,127.6,78,127.6,81.2z"/>
</g>
</svg>
