<?xml version="1.0" encoding="iso-8859-1"?>
<!-- Generator: Adobe Illustrator 19.0.0, SVG Export Plug-In . SVG Version: 6.00 Build 0)  -->
<svg version="1.1" id="Capa_1" xmlns="http://www.w3.org/2000/svg" xmlns:xlink="http://www.w3.org/1999/xlink" x="0px" y="0px"
	 viewBox="0 0 512 512" style="enable-background:new 0 0 512 512;" xml:space="preserve">
<g>
	<g>
		<path d="M119.734,220.432H39.577c-4.451,0-8.01,4.027-7.457,8.447l8.016,64.125c0.346,2.768,2.198,5.118,4.809,6.101
			c2.586,0.973,5.575,0.418,7.64-1.417l72.141-64.125C129.784,229.065,126.494,220.432,119.734,220.432z M53.277,276.963
			L48.09,235.46h51.878L53.277,276.963z"/>
	</g>
</g>
<g>
	<g>
		<path d="M490.044,128.319c-1.988-4.119-4.117-8.153-6.356-12.119c-0.004-0.008-0.009-0.015-0.013-0.023
			c-13.4-23.726-31.253-44.681-53.237-62.41c-1.336-1.077-3.001-1.665-4.717-1.665H86.28c-1.716,0-3.382,0.587-4.717,1.665
			c-22.045,17.778-39.937,38.8-53.349,62.606c-0.01,0.017-0.02,0.034-0.029,0.051c-2.192,3.894-4.277,7.853-6.227,11.894
			c-9.756,20.212-16.274,41.928-19.527,64.853c-0.004,0.025-0.008,0.05-0.011,0.075C0.82,204.531,0,216.105,0,227.945
			c0,34.462,6.799,66.792,20.208,96.092c12.821,28.015,31.381,52.667,55.165,73.27c7.034,6.093,14.473,11.765,22.266,17.018
			c0.048,0.032,0.094,0.067,0.142,0.097c11.553,7.774,23.889,14.616,36.886,20.468c0.276,0.141,0.557,0.263,0.844,0.369
			c13.299,5.932,27.28,10.829,41.801,14.659c0.321,0.105,0.644,0.195,0.974,0.257c24.597,6.394,50.724,9.724,77.714,9.724
			c43.277,0,84.346-8.532,120.415-24.607c0.148-0.06,0.295-0.122,0.439-0.191c12.303-5.51,24.014-11.907,35.034-19.138
			c0.049-0.033,0.1-0.062,0.148-0.096c8.641-5.678,16.861-11.863,24.59-18.558c23.783-20.603,42.344-45.255,55.165-73.27
			c7.306-15.964,12.635-32.835,15.985-50.454c0.007-0.033,0.013-0.065,0.019-0.098c2.786-14.687,4.204-29.89,4.204-45.54
			C512,192.021,504.613,158.502,490.044,128.319z M15.029,227.945c0-8.812,0.481-17.439,1.405-25.882l157.458,6.298L42.724,333.827
			C24.901,303.04,15.029,267.171,15.029,227.945z M71.104,371.781c-7.393-7.813-14.141-16.159-20.191-24.989L197.069,206.99
			c4.697-4.493,1.586-12.68-4.894-12.939l-173.6-6.944c1.15-6.422,2.587-12.717,4.291-18.886l232.386,17.876L71.104,371.781z
			 M81.825,382.315l195.542-197.172c4.427-4.464,1.489-12.304-4.759-12.784L27.525,153.506c3.157-8.759,6.904-17.226,11.23-25.378
			l289.494,33.403L101.06,397.992C94.305,393.1,87.888,387.867,81.825,382.315z M113.708,406.521L349.591,161.01
			c4.229-4.402,1.487-11.974-4.557-12.672L47.066,113.958c6.204-9.626,13.289-18.75,21.232-27.329l332.748,50.417L136.44,419.002
			C128.551,415.215,120.96,411.055,113.708,406.521z M177.225,434.338c-9.024-2.539-17.762-5.522-26.2-8.915l270.768-288.523
			c4.069-4.334,1.511-11.684-4.353-12.573L81.664,73.452c2.375-2.145,4.795-4.259,7.292-6.321h334.088
			c18.293,15.112,33.316,32.455,44.934,51.71L177.225,434.338z M238.481,444.369c-15.425-0.863-30.331-2.854-44.615-5.911
			l281.743-305.722c4.724,9.508,8.668,19.432,11.84,29.727L238.481,444.369z M258.11,444.847l233.911-264.855
			c1.681,7.838,2.945,15.866,3.769,24.076L314.618,399.176c-3.443,3.708-2.184,9.893,2.423,11.966l37.368,16.815
			C325.385,438.691,292.958,444.615,258.11,444.847z M408.158,399.979l-13.044-11.957l90.666-90.666
			C471.614,339.193,444.592,374.441,408.158,399.979z M493.272,268.609L378.937,382.945c-2.984,2.982-2.872,8.005,0.235,10.853
			l15.971,14.64c-6.959,4.195-14.203,8.071-21.726,11.593l-40.662-18.298l164.179-176.808c0.012,1.007,0.037,2.009,0.037,3.021
			C496.971,241.956,495.703,255.534,493.272,268.609z"/>
	</g>
</g>
<g>
</g>
<g>
</g>
<g>
</g>
<g>
</g>
<g>
</g>
<g>
</g>
<g>
</g>
<g>
</g>
<g>
</g>
<g>
</g>
<g>
</g>
<g>
</g>
<g>
</g>
<g>
</g>
<g>
</g>
</svg>
