<?xml version="1.0" encoding="iso-8859-1"?>
<!-- Generator: Adobe Illustrator 19.0.0, SVG Export Plug-In . SVG Version: 6.00 Build 0)  -->
<svg version="1.1" id="Capa_1" xmlns="http://www.w3.org/2000/svg" xmlns:xlink="http://www.w3.org/1999/xlink" x="0px" y="0px"
	 viewBox="0 0 512 512" style="enable-background:new 0 0 512 512;" xml:space="preserve">
<g>
	<g>
		<path d="M453.388,128.435h38.594V38.383H20.018v90.052h38.594C21.359,165.965,0,216.825,0,271.012
			c0,111.717,90.888,202.605,202.604,202.605h106.792C421.112,473.617,512,382.729,512,271.012
			C512,216.825,490.641,165.965,453.388,128.435z M50.019,98.433V68.384h411.962v30.049H50.019z M105.316,128.435h301.368
			c25.417,17.363,45.275,40.72,58.206,67.526H47.11C60.041,169.154,79.9,145.798,105.316,128.435z M129.327,225.962h99.224
			l-49.612,77.322L129.327,225.962z M151.491,316.062H52.266l49.612-77.322L151.491,316.062z M255.998,238.74l49.612,77.322h-99.224
			L255.998,238.74z M283.447,225.962h99.223l-49.612,77.322L283.447,225.962z M410.119,238.74l49.612,77.322h-99.224L410.119,238.74
			z M30.001,271.012c0-15.442,2.054-30.56,5.951-45.05H74.43l-43.031,67.066C30.477,285.817,30.001,278.47,30.001,271.012z
			 M309.396,443.616H202.604c-68.292,0-127.445-39.869-155.413-97.552H464.81C436.841,403.747,377.688,443.616,309.396,443.616z
			 M437.568,225.962h38.48c3.896,14.49,5.951,29.608,5.951,45.05c0,7.458-0.476,14.807-1.398,22.018L437.568,225.962z"/>
	</g>
</g>
<g>
</g>
<g>
</g>
<g>
</g>
<g>
</g>
<g>
</g>
<g>
</g>
<g>
</g>
<g>
</g>
<g>
</g>
<g>
</g>
<g>
</g>
<g>
</g>
<g>
</g>
<g>
</g>
<g>
</g>
</svg>
