<?xml version="1.0"?>
<svg xmlns="http://www.w3.org/2000/svg" version="1" viewBox="0 0 24 24" enable-background="new 0 0 24 24">
    <path style="text-indent:0;text-align:start;line-height:normal;text-transform:none;block-progression:tb;-inkscape-font-specification:Bitstream Vera Sans" d="M 11 3 L 11 7.09375 C 10.363483 7.2252342 9.7752571 7.4925971 9.25 7.84375 L 6.3125 4.90625 L 4.90625 6.3125 L 7.84375 9.25 C 7.4937489 9.7750209 7.2569847 10.364307 7.125 11 L 3 11 L 3 13 L 7.125 13 C 7.2569847 13.635693 7.4937489 14.224979 7.84375 14.75 L 4.90625 17.6875 L 6.3125 19.09375 L 9.25 16.15625 C 9.7752571 16.507403 10.363483 16.774766 11 16.90625 L 11 21 L 13 21 L 13 16.90625 C 13.636517 16.774766 14.224743 16.507403 14.75 16.15625 L 17.6875 19.09375 L 19.09375 17.6875 L 16.15625 14.75 C 16.506251 14.224979 16.743015 13.635693 16.875 13 L 21 13 L 21 11 L 16.875 11 C 16.743015 10.364307 16.506251 9.7750209 16.15625 9.25 L 19.09375 6.3125 L 17.6875 4.90625 L 14.75 7.84375 C 14.224743 7.4925971 13.636517 7.2252342 13 7.09375 L 13 3 L 11 3 z M 12 9 C 13.654545 9 15 10.345455 15 12 C 15 13.654545 13.654545 15 12 15 C 10.345455 15 9 13.654545 9 12 C 9 10.345455 10.345455 9 12 9 z"/>
</svg>
