<svg id="Layer_1" data-name="Layer 1" xmlns="http://www.w3.org/2000/svg" viewBox="0 0 135.13 96.17"><defs><style>.cls-1{fill:#fff;}.cls-1,.cls-2{stroke:#c7efff;stroke-miterlimit:10;stroke-width:2px;}.cls-2{fill:none;}</style></defs><title>turtle</title><path class="cls-1" d="M10.67,65,6,73.11s-1.67,6.3,2.33,6.76,13.5-4.54,13.5-4.54S20,65.17,17.33,63.83,10.67,65,10.67,65Z" transform="translate(-0.59 -5.2)"/><path class="cls-1" d="M126.7,52.83s5.8,17.5-2,40c-1.23,3.52-7,.17-7.67,0s-3.67.33-5.5,0-9-3.31-9-3.31-2.91-.6-3.5-1.19C93.83,83.17,126.7,52.83,126.7,52.83Z" transform="translate(-0.59 -5.2)"/><path class="cls-1" d="M8.67,73.15c19.71,16.19,74,33.19,98.5,6.85S123.9,55,133,34.83c3-6.66,1.67-12.33-.83-16.17a21.34,21.34,0,0,1-2.81-6.33s-72.69.66-78,4.33S7.5,66,7.5,66,7.27,72,8.67,73.15Z" transform="translate(-0.59 -5.2)"/><path class="cls-1" d="M1.67,55.5s12.08-8.5,16-15c.62-1,9.67-25.67,28.17-31.67C49.75,7.56,61.54,4.44,68.5,7.5c11,4.83,31.5,4.33,31.5,4.33S90.17,20,82.83,22.5s-20.67,17.67-22.5,22-4.44,9.61-6.67,11.83c-17,17-37.85,14-41.33,13.5C0,68.17,1.67,55.5,1.67,55.5Z" transform="translate(-0.59 -5.2)"/><path class="cls-1" d="M93.83,54" transform="translate(-0.59 -5.2)"/><path class="cls-1" d="M128.5,12.5s-21-4.24-27.17-.83S95.17,16,95,16.5s-4.16,17.63-2.17,20.83c3,4.83,10.83,4.17,12.33,1.5s3.5-11.83,6.67-15.67S128.5,12.5,128.5,12.5Z" transform="translate(-0.59 -5.2)"/><path class="cls-1" d="M69.83,41.83c.26-.66,4.17-9.17,8.5-9.67S90.83,31.33,90.5,37s1.19,25-7.67,42.17C77.5,89.5,59.67,98.67,55,99.17s-8.83,2-10.17.67-2.17-2.33-4.67-2.33S39.5,95.5,37,95s-4.33-.5-3.67-2S49.67,65,60,61.17,67.84,46.88,69.83,41.83Z" transform="translate(-0.59 -5.2)"/><path class="cls-2" d="M105.5,26.5a58.66,58.66,0,0,1,4.17-8c2.24-3.59,3.4-4.55,4.33-5.17a12.14,12.14,0,0,1,5.33-1.83,13,13,0,0,1,4.67.33" transform="translate(-0.59 -5.2)"/><ellipse class="cls-1" cx="101.33" cy="17.58" rx="5.92" ry="4.67" transform="translate(38.11 93.96) rotate(-62.33)"/></svg>