<svg id="Layer_1" data-name="Layer 1" xmlns="http://www.w3.org/2000/svg" viewBox="0 0 503.07 391.12"><defs><style>.cls-1{fill:#fdc415;stroke:#ff3c00;stroke-miterlimit:10;}.cls-2{fill:#fff;}.cls-3{fill:#ff3c00;}</style></defs><title>cat2</title><path class="cls-1" d="M207,181.25l.12,7.83q-1.87,31.81-23.68,52.19t-53.69,20.26h-.2q-31.81-1.86-52.28-23.78T57.11,183.95l.15-4.3q3.41-31.17,13.27-42.18t11.81-10.74a4,4,0,0,1,3.61.32,4.2,4.2,0,0,1,2.14,3.2q-.25,1.56,3.65,13.42T108,160.27q.29-8.4,1.45-19.7A136.2,136.2,0,0,1,113.73,118a106.54,106.54,0,0,1,41-55.12,4.13,4.13,0,0,1,4.4,0,3.77,3.77,0,0,1,2.13,3.59,54.27,54.27,0,0,0,5.38,25.8,166.6,166.6,0,0,0,14.08,23,196.78,196.78,0,0,1,17,28.06Q205.61,158.91,207,181.25Zm-77.16,71.87A24,24,0,0,0,147.79,246q7.38-7.27,8-18.6l-.12-2.15a41.75,41.75,0,0,0-3.3-15.17A78.51,78.51,0,0,0,146,198.72q-2.42-3.6-4.63-7.49a35.41,35.41,0,0,1-3.43-8.43,37.85,37.85,0,0,0-5.53,7.44,34.47,34.47,0,0,0-3.41,8.29,52.33,52.33,0,0,0-1.79,9.52q-.46,4.88-.61,9.37a4,4,0,0,1-4.24,4,13.58,13.58,0,0,1-8.49-3.32,18.6,18.6,0,0,1-4.84-7.11q-2.29,4-3.19,13.19l-.05,1.56q-.19,11.34,6.68,19.1A24,24,0,0,0,129.84,253.12Z" transform="translate(-3.9 -5.36)"/><path class="cls-2" d="M464,44.54c9.67,12.13,19.63,36,24.76,50.6,10.68,30.45,21.41,63.71,11.07,94.28-4.27,12.63-11.9,23.83-17.6,35.89-13.45,28.48-15.73,60.76-17.8,92.19-.43,6.54-.66,13.76,3.44,18.87,2.34,2.92,5.85,4.77,8,7.84,6,8.62-3.85,21.49-14.35,20.91S442.93,355,439.8,344.92s-2.68-20.8-3.89-31.25,1.46-22.59-7.12-28.67c-1.64,25.45-7.86,56,11.49,72.57,4.25,3.65,9.67,7.11,9.38,13.17a10.11,10.11,0,0,1-4.73,7.84c-5.36,3.5-11.85,2.66-17.59.74a50.67,50.67,0,0,1-32-33.15,47.4,47.4,0,0,0-12.17,17.13c8.9,1.31,18.44,3.35,23.43,11.72a12.22,12.22,0,0,1,.38,12.26c-3.3,5.81-9.72,7-15.25,5.8-47-10.34-84.54-3.77-127.05-7.22-.93-.08-.79-1.29-1.55-1.82-13.23-9.11-17.57-14.86-22.86-14.13-45.87,6.29-93.18,12-137.94.18S15.48,324.55,7.73,278.91c-1-5.63-1.34-11.68,1.59-16.73a11.81,11.81,0,0,1,6.44-5.33c5.26-1.74,8.79,1.25,11.82,4.3,15,15,24.31,35,39.9,49.37,23.26,21.43,56.83,27.22,88.44,28.11,24,.68,55.9-1.17,71.51-19.42,15.21-17.78,9.42-44.67,12.76-67.82,8.39-58.05,51.69-111.11,108.55-125.52,3.78-1,7.76-1.83,10.76-4.31,6.36-5.26,5.69-15.26,2.87-23s-7.25-15.41-6.56-23.64c1.14-13.56,16-24.59,13-37.87-1.26-5.58-16.33-21.63-11.3-27.22,5.43-6,26.17,9.73,29.93,13.65.57.59,13-1.71,17.63-1.7,4.07,0,8.1.71,12.16,1,8.68.68,19.4,5.15,25.76-3.19,2.45-3.21,8-2.94,11.76-1.48,3.21,1.25,10.16,20.37,9.61,26.92Z" transform="translate(-3.9 -5.36)"/><path class="cls-3" d="M461.85,46.66c7.95,10.2,13.41,22.58,18.32,34.46a386,386,0,0,1,14,40.32c4.39,15.19,7.6,31,6.65,46.86-1,16.18-7.6,29.89-15.21,43.88a168.06,168.06,0,0,0-16.17,40.74c-3.59,14.73-5.38,29.84-6.64,44.93-.61,7.29-1.2,14.61-1.54,21.92-.28,6,0,12.43,3.55,17.49s11.82,8.18,9.35,15.71c-2,6-8.44,10.15-14.69,8.87-18.56-3.81-18.94-28.08-20.07-42.62-.54-6.94-.6-13.94-1.25-20.86-.57-6-2.35-11.64-7.27-15.49-2.06-1.61-4.94-.64-5.12,2.12-1.55,23-8,52.24,9,71.36,3.52,4,12.36,8.26,11.89,14.39-.77,10.05-15,7.17-20.88,4.82a48,48,0,0,1-27.52-30.18,3,3,0,0,0-5-1.32A52.44,52.44,0,0,0,380.6,361.8c-.68,1.55-.33,4.09,1.79,4.41,4.83.73,9.87,1.54,14.28,3.75,5.88,3,11.81,10.11,7.1,16.69-4.16,5.81-11.21,3.47-17,2.35-6.41-1.24-12.86-2.23-19.35-3-23.93-2.8-48-1.94-72-2-5.65,0-11.3-.11-16.94-.32q-4.74-.18-9.47-.49c-.61,0-2.74,0-2.78,0-.56-.22-1.81-1.85-2.39-2.31-4-3.19-8.27-6.18-12.37-9.27-2.4-1.81-5-3.75-7.93-4.49-3.95-1-8.75.5-12.62,1-6.86.91-13.72,1.79-20.6,2.57-13.11,1.49-26.28,2.64-39.47,3.06-47.05,1.5-96-7.71-130.76-41.73-14.58-14.26-25.53-32.33-29.25-52.54-1.11-6-2.17-14.86,3.83-18.86,6.18-4.12,11.55,3.22,15.18,7.36,7.73,8.83,14,18.8,21,28.15,13.3,17.64,29.71,30.17,50.79,37.15,20.71,6.86,43.18,8.68,64.89,8.39,18.42-.24,39.17-2.17,54.71-13.07,17.62-12.35,19.91-32.89,20.44-52.83.28-10.83.62-21.51,2.81-32.17a152.77,152.77,0,0,1,9.24-29.53,157.14,157.14,0,0,1,34.92-50.76,137.55,137.55,0,0,1,52.51-32.2c8.47-2.77,19.53-3.36,24.09-12.23s.9-18.93-2.55-27.4C360.52,86,358,80.12,358.94,74c.8-5.41,3.8-10.2,6.47-14.85,3.95-6.88,8.66-15.21,6.11-23.44-2-6.39-7.32-11.66-10.31-17.59-.82-1.63-2.94-5.34-.89-6.61s7.56,2,9.32,2.92a79.1,79.1,0,0,1,9.55,6.1c2.11,1.55,4.15,4,6.38,5.29s4.93.56,7.38.24A104.5,104.5,0,0,1,405,24.75c9.87-.11,20.11,4,29.91,2.6,4.56-.65,6.75-3,10.13-5.64,3.76-3,8-2,10.09,1.93,3.21,6,6.48,14.43,6.16,21.39l5.59-1.51-.36-.48c-2.26-3.08-7.47-.09-5.18,3l.36.48c1.73,2.35,5.45,1.63,5.59-1.51.34-7.58-3-15.92-6.12-22.67-1.08-2.32-2.4-5.23-4.65-6.67-3.25-2.09-8.77-2.16-12.2-.71-2,.84-2.92,2.16-4.45,3.59a10.8,10.8,0,0,1-7.65,3c-5,.15-10.05-1.26-15-1.79a102.44,102.44,0,0,0-28.71.77c-1.5.26,1.39,1.17.36.12-.29-.29-.63-.53-.92-.83a35.14,35.14,0,0,0-3.75-3A87.72,87.72,0,0,0,374.11,10c-4.63-2.63-12.53-7-17.71-3.24C350.51,11,354.84,19.27,357.61,24c4,6.77,10.17,12.53,7.94,21-2.62,9.94-10.82,17.5-12.49,27.86-1.94,12,6.39,21.61,8.07,33,.84,5.68-.09,11.84-5.57,14.78-5.14,2.76-11.73,3.4-17.28,5.28a138,138,0,0,0-29,13.82c-36,22.63-62,60.81-70.48,102.41-2.29,11.18-2.73,22.38-3,33.76-.29,11.16-.54,23.07-5.43,33.36-9.92,20.91-36,25.35-56.73,26.33-22.9,1.08-46.85-.52-68.79-7.48-11.39-3.61-22.37-8.95-31.66-16.54-9.92-8.11-17.34-18.57-24.7-28.93-6.4-9-13.13-20.1-22.26-26.61-8.17-5.82-18.11-.61-21,8.27-3.3,10,.63,22.57,4.15,32a104.64,104.64,0,0,0,15.17,27.17c29,37.77,75.93,54,122.1,56.23C174.79,381,203,377.9,231,374.18c4.09-.54,9-2.4,12.91-.48s7.33,5.27,10.8,7.9c3.76,2.85,7,7,11.76,7.41,6.28.53,12.59.74,18.88.87,26.19.57,52.41-1,78.52,1.75q9.78,1,19.46,2.81c5.6,1,11.37,3,17.07,1.47,10.44-2.84,13.93-15,8.05-23.6-5.53-8.1-15.31-10.51-24.44-11.89l1.79,4.41a48.41,48.41,0,0,1,11.7-16.52l-5-1.32a54.68,54.68,0,0,0,19.92,27.93c8.59,6.31,22.28,12.55,32.68,7.06a13.47,13.47,0,0,0,7.57-11.9c-.08-5.42-3.83-9.23-7.71-12.51-9.72-8.22-14.18-18.18-15.14-30.86-1-13.91,1.06-27.84,2-41.7l-5.12,2.12c5.72,4.48,5.66,11.48,5.82,18.17.18,7.75,1,15.51,1.58,23.23,1.06,13.57,4.29,28.42,16.72,36.17,10,6.24,23,3.2,28.24-7.72a14.42,14.42,0,0,0-.58-14.28c-1.79-2.72-4.55-4.45-6.82-6.7-3.45-3.41-4.36-7.62-4.43-12.35-.26-16.43,1.87-33.68,4.33-49.91,2.52-16.67,6.61-33.27,14-48.49,7-14.42,16.18-27.81,19.53-43.75s1.87-32.39-1.64-48.18c-3.81-17.13-9.58-34-16.07-50.33-5.63-14.1-11.88-28.53-21.27-40.58C463.72,39.38,459.5,43.65,461.85,46.66Z" transform="translate(-3.9 -5.36)"/><path class="cls-3" d="M430.1,114.38c-7.86,10.39-19.77,16.62-32.91,14C390.57,127,380.14,123,378,115.68l-2.89,3.8a31.89,31.89,0,0,1,12.59,1.28l-1.32-5c-3.16,3.37-7.39,7.46-12.33,7.66s-6.86-4.24-7.86-8.31c-.92-3.75-6.71-2.16-5.79,1.6,1.48,6,5,11.81,11.67,12.61,7.34.88,13.86-4.3,18.55-9.32a3,3,0,0,0-1.32-5,36.69,36.69,0,0,0-14.18-1.5,3,3,0,0,0-2.89,3.8c2.87,9.79,15.22,15.46,24.4,17.07,15.69,2.75,29.32-4.59,38.67-16.94,2.33-3.08-2.88-6.07-5.18-3Z" transform="translate(-3.9 -5.36)"/><path class="cls-3" d="M401.06,95.18c-5.14-9.58,21-12.32,25.74-12.75l-2.59-4.51c-1.91,4.18-3.67,9.18-7.19,12.33-4.73,4.23-11.73,3.94-17.65,3.56-3.86-.25-3.84,5.75,0,6,7,.45,14.76.28,20.56-4.22,4.73-3.67,7-9.35,9.45-14.64.85-1.85-.1-4.74-2.59-4.51-9.72.89-39.94,5-30.92,21.78,1.83,3.4,7,.38,5.18-3Z" transform="translate(-3.9 -5.36)"/><path class="cls-3" d="M377.91,116.69c1.65-8.79,4.19-18.73,2.81-27.74-1.26-8.26-9-10.36-15.76-13.27-3.51-1.5-6.57,3.67-3,5.18,5.39,2.3,12.44,3.45,13,10.18.69,7.93-1.37,16.33-2.83,24-.71,3.77,5.07,5.39,5.79,1.6Z" transform="translate(-3.9 -5.36)"/><path class="cls-3" d="M377.53,91.92c-2.5.36-6.74.17-8.85-1.33-3.38-2.41-2.63-7.84-2.34-11.36.32-3.85-5.68-3.83-6,0-.48,5.72-.33,12.21,4.65,16,3.69,2.83,9.7,3.09,14.13,2.44,3.81-.55,2.19-6.34-1.6-5.79Z" transform="translate(-3.9 -5.36)"/><path class="cls-3" d="M373,84.45c0-.24,0-.47,0-.71,0-.77.29-.17-.38,1.15L368.49,86h0l-1.38-1.79c.11.34-.1-1-.08-.59,0,.09,0,.17,0,.26,0,.29,0,.58,0,.87,0,.94,0,1.88,0,2.83a3,3,0,1,0,6,0c0-1.09,0-2.18-.06-3.28,0-.26,0-.52,0-.77a3.4,3.4,0,0,0-1.51-2.71,3,3,0,0,0-4.1,1.08,5.42,5.42,0,0,0-.44,2.58,3,3,0,1,0,6,0Z" transform="translate(-3.9 -5.36)"/><path class="cls-3" d="M404.84,86.25a2,2,0,0,1,0,.21c.06.23-.11-.91,0-.17.05.45.1.91.15,1.37a11.88,11.88,0,0,0,.35,2.66,3,3,0,0,0,5.79-1.6s-.06-.2,0-.21v-.09q.12.91.07.52l0-.26c-.05-.45-.1-.91-.15-1.37a11.88,11.88,0,0,0-.35-2.66,3,3,0,0,0-5.79,1.6Z" transform="translate(-3.9 -5.36)"/><path class="cls-3" d="M450.4,51c-10-7.35-4.34-20.52,2.7-27.52,2.74-2.72-1.5-7-4.24-4.24-10.17,10.1-14.73,27.21-1.49,36.94,3.11,2.29,6.11-2.92,3-5.18Z" transform="translate(-3.9 -5.36)"/><path class="cls-3" d="M447.57,25.41a10.7,10.7,0,0,1,2.2,7.24c-.16,3.86,5.84,3.85,6,0a17,17,0,0,0-4-11.48c-1-1.27-3.19-1.06-4.24,0a3.07,3.07,0,0,0,0,4.24Z" transform="translate(-3.9 -5.36)"/><path class="cls-3" d="M386.33,43.8c2.69-12-9.94-19.34-18.3-25.35-3.14-2.26-6.14,2.95-3,5.18,5.39,3.87,17.31,10.7,15.54,18.57-.84,3.76,4.94,5.37,5.79,1.6Z" transform="translate(-3.9 -5.36)"/><path class="cls-3" d="M431,287.16l13.39-39.49c3.43-10.12,6.6-22.24,16.84-27.52,3.43-1.77.4-6.95-3-5.18-10,5.15-14.35,15.77-17.81,25.85-5.12,14.89-10.12,29.83-15.17,44.74-1.24,3.66,4.55,5.24,5.79,1.6Z" transform="translate(-3.9 -5.36)"/><path class="cls-3" d="M382,360.86a150,150,0,0,0-28.07.59c-3.79.44-3.84,6.44,0,6a150,150,0,0,1,28.07-.59c3.85.28,3.83-5.72,0-6Z" transform="translate(-3.9 -5.36)"/><path class="cls-3" d="M398.69,345.44a22.19,22.19,0,0,0-.72-8c-1-3.72-6.8-2.14-5.79,1.6a17.4,17.4,0,0,1,.51,6.38,3,3,0,0,0,3,3,3.07,3.07,0,0,0,3-3Z" transform="translate(-3.9 -5.36)"/><path class="cls-3" d="M398,337c-.87-14.41-.86-29.21-2.83-43.51A40.43,40.43,0,0,0,378,265.84c-3.17-2.22-6.17,3-3,5.18,9.84,6.9,14.1,17.15,14.86,28.84.8,12.36,1.49,24.74,2.24,37.1.23,3.84,6.23,3.86,6,0Z" transform="translate(-3.9 -5.36)"/></svg>