<?xml version="1.0" encoding="utf-8"?>
<!-- Generator: Adobe Illustrator 21.0.2, SVG Export Plug-In . SVG Version: 6.00 Build 0)  -->
<svg version="1.1" id="Layer_1" xmlns="http://www.w3.org/2000/svg" xmlns:xlink="http://www.w3.org/1999/xlink" x="0px" y="0px"
	 viewBox="0 0 1271 1747.5" style="enable-background:new 0 0 1271 1747.5;" xml:space="preserve">
<style type="text/css">
	.st0{fill:#E2E2E2;}
	.st1{fill:#AFAFAF;stroke:#C6C6C6;stroke-width:4;stroke-miterlimit:10;}
	.st2{fill:none;stroke:#75A4D3;stroke-miterlimit:10;}
	.st3{fill:none;stroke:#75A4D3;stroke-miterlimit:10;stroke-dasharray:7.0238,7.0238;}
	.st4{fill:none;stroke:#75A4D3;stroke-miterlimit:10;stroke-dasharray:7;}
	.st5{fill:#FFFFFF;}
	.st6{fill:none;stroke:#75A4D3;stroke-width:4;stroke-miterlimit:10;stroke-dasharray:7;}
	.st7{fill:#FCFCFC;}
	.st8{fill:none;}
</style>
<g id="Layer_1_1_">
	
		<image style="overflow:visible;enable-background:new    ;" width="1699" height="2340" xlink:href="36C1EAF3.jpeg"  transform="matrix(0.7468 0 0 0.7468 0 0)">
	</image>
	<rect x="-29" y="-10" class="st0" width="1318" height="1798"/>
	<path class="st1" d="M243,1128c0,0,96.2,0.9,157,1c67.7,0.1,294.2-15,337-23c3.3-0.6,103.3-51.8,117-84c18.1-42.8,24.5-136,2-184
		c-26.5-56.6-43.3-64.1-105.8-66.4L-5.1,758.5C1,1247,2,1605,1,1695c34.9,20,98.3,39.6,210.9,4.9
		C221.4,1510.2,233.5,1317.6,243,1128z"/>
	<g>
		<g>
			<line class="st2" x1="887.1" y1="104" x2="887.1" y2="107.5"/>
			<polyline class="st3" points="887.1,114.5 887.1,1436.1 887.1,1740.5 			"/>
			<line class="st2" x1="887.1" y1="1744" x2="887.1" y2="1747.5"/>
		</g>
	</g>
	<line class="st4" x1="182.1" y1="1056.1" x2="881.1" y2="1056.1"/>
	<polygon class="st5" points="535,1139 541,1375 238,1372 250,1136 	"/>
	<polygon class="st5" points="328,1484 326,1652 665,1657 666,1522 632,1490 	"/>
	<polygon class="st5" points="228,1585.5 284,1585.5 290,1622 290,1636.5 285.5,1636.5 286.5,1653 285.5,1672.5 259,1672.5 
		259,1678.5 224.5,1678.5 224.5,1585.5 	"/>
</g>
<g id="Layer_2">
	<path class="st4" d="M182.1,852.1c0,0,82.5-7.5,97.5,9s77.6,111.1,142.5,103.5c76.5-9,76-67.6,109.5-81c52.5-21,90-18,166.5,6
		c121.6,38.2,145.5-87,183-93"/>
</g>
<g id="Layer_3">
	<path class="st4" d="M334.2,933.1c-17.6,58.4,5.4,106.5,1.4,115.5c-8.1,18.3,71.5-15,94.5-85.2"/>
	<line class="st4" x1="887.1" y1="384.1" x2="1203.6" y2="384.1"/>
	<line class="st6" x1="1244.1" y1="384.1" x2="1278.6" y2="384.1"/>
	<path class="st5" d="M472,487.3h-56.7c-2.2,0-4,1.8-4,4l-2,132.7c0,0.6-0.5,1-1,1l-125.9-3.2c-1.8,0-3.5,1.1-4,2.9l0,0
		c-0.5,1.6-1.9,2.8-3.6,2.9l-24.6,1.8c-2.2,0.2-3.8,2-3.7,4.2l0.3,6.8c0.1,2.1-1.4,3.9-3.4,4.2l-10.3,1.6c-2,0.3-3.4,2-3.4,4V729
		c0,2.2,1.8,4,4,4h8.3c2.2,0,4,1.8,4,4v9.2c0,2.2,1.8,4,4,4h21.3c1.1,0,2.1,0.4,2.9,1.2l4.2,4.2c0.8,0.8,1.8,1.2,2.9,1.2h132.2
		c3.1,0,5.1,3.4,3.5,6.1l-16.8,29.5c-1.3,2.2-0.2,5,2.2,5.8c0,0,33.3,20.8,63,20.8"/>
	<path class="st7" d="M458.1,487.3h56.7c2.2,0,4,1.8,4,4l1.9,132.7c0,0.6,0.5,1,1,1l210,3.8c1.8,0,3.5,1.1,4,2.9l0,0
		c0.5,1.6,1.9,2.8,3.6,2.9l24.6,1.8c2.2,0.2,3.8,2,3.7,4.2l-0.3,6.8c-0.1,2.1,1.4,3.9,3.4,4.2l10.3,1.6c2,0.3,3.4,2,3.4,4V736
		c0,2.2-1.8,4-4,4h-8.3c-2.2,0-4,1.8-4,4v9.2c0,2.2-1.8,4-4,4h-21.3c-1.1,0-2.1,0.4-2.9,1.2l-4.2,4.2c-0.8,0.8-1.8,1.2-2.9,1.2
		l-216.3-7c-3.1,0-5.1,3.4-3.5,6.1l16.8,29.5c1.3,2.2,0.2,5-2.2,5.8c0,0-33.3,20.8-63,20.8"/>
	<path class="st5" d="M0,1700c0,0,852,0,860-4c2-48.8-6.8-93.1,6-161c15.1-80,156.3-183.8,220.3-241.3
		C1233,1162,1203,1000,1203,1000s-51,10-92,11c-4.7,0.1-13.3-8.7-14-18c-0.7-9.5,10-19,10-19l88.3-11.1l8.1-8.6l1-18.5
		c0,0-4-9.3-9.1-8.8c-34.9,3.3-156.7,14.4-232.3,15.1c-4.1,0-9.9-4.3-14.3-8.4c-4.2-3.8-6.4-9.4-5.9-15.1l4.1-50
		c0.9-10.5,8.8-23,19.2-24.6l233.9-32l4-727c-31.7-6-703-7.8-783.2-8c-4.2,0-7.5,3.6-7.1,7.8l11.1,125.9
		c0.7,18.4-19.5,37.6-37.9,38.4c-48.4,1.9-138.7-6.5-192.5-3.5c-4.9,0.3-8.8,4.3-9,9.2c-3.2,113.7-0.5,1281.5-3,1284.5
		c-8,9.8-27.5,10.4-37.1,2.2c-0.6-0.5-1.1-1-1.5-1.4c1.5-54.7,1.9-449.8,2-519.5c0-3.8-4.6-5.7-7.3-3
		C112.6,1044.2,24.6,1134.4,0,1163v-60l142.7-142.7c1.5-1.5,2.2-3.5,2.1-5.5c0,0-2-246.8-6.2-246.7L0,712v-43l132.5,1
		c3.6,0,6.5-2.8,6.6-6.4l5.6-562.4c0.1-4.1-3.5-7.3-7.6-6.9L0,110c0,0-11.4-44.3,0-46c135-22,456-28.3,504.6-25.8
		c3.6,0.2,6.4-3,6.4-6.6V0h44l-1.2,20.6c-0.4,6.7,4.9,12.4,11.7,12.5L840,35l428.8,14l1.8,35.8L1242,84l2,776l27-2v41l-29-1
		c0,0,14.3,176-13,233c-3.4,7,31-7.2,42,3c9.3,8.6,9.3,29.1,0,38c-7.9,7.5-29.2,3.9-42.9,0.5c-7.6-1.9-19-0.6-20.2,7.1
		c-4.9,29.5-42.9,89.8-42.9,89.8l-74.3,63l2.1,31.3l73.1,73.3l102.8-3c0,0,6.3,29.5,0,42l-231.8,4c0,0-10.9-25.7-4-35
		c17.6-0.4,71-5,71-5l-58-65c0,0-120,116.1-139,167c-13.3,35.6-3,152-3,152h364.8l2.2,53.5H0V1700z"/>
	<path class="st8" d="M979.1,881.2l0.3,11.5c0.1,3.2,2.7,5.7,5.9,5.5l210.4-9.9c3.9-0.2,7-3.3,7.2-7.2l1.3-25.4
		c0.2-3.5-2.9-6.4-6.4-6l-213.1,25C981.5,875.2,979.1,878,979.1,881.2z"/>
	<path class="st0" d="M183.5,98l4,92.6c0.3,7,5.9,12.7,13,12.9l178.4,7.1c4.8,0.2,8.7-4,8.1-8.8l-13.8-116c-0.7-5.5-5.5-9.6-11-9.3
		L195,85.4C188.3,85.7,183.2,91.3,183.5,98z"/>
	<circle class="st5" cx="887.1" cy="56" r="46.5"/>
	<circle class="st0" cx="887.1" cy="56" r="8.5"/>
</g>
</svg>
