<?xml version="1.0" encoding="utf-8"?>
<!-- Generator: Adobe Illustrator 21.0.2, SVG Export Plug-In . SVG Version: 6.00 Build 0)  -->
<svg version="1.1" id="Layer_1" xmlns="http://www.w3.org/2000/svg" xmlns:xlink="http://www.w3.org/1999/xlink" x="0px" y="0px"
	 viewBox="0 0 1271 1747.5" style="enable-background:new 0 0 1271 1747.5;" xml:space="preserve">
<style type="text/css">
	.st0{fill:#E2E2E2;}
	.st1{fill:#AAD6BD;}
	.st2{fill:none;stroke:#75A4D3;stroke-miterlimit:10;}
	.st3{fill:none;stroke:#75A4D3;stroke-miterlimit:10;stroke-dasharray:7.0238,7.0238;}
	.st4{fill:none;stroke:#75A4D3;stroke-miterlimit:10;stroke-dasharray:7;}
	.st5{fill:#FFFFFF;}
	.st6{fill:none;stroke:#75A4D3;stroke-width:4;stroke-miterlimit:10;stroke-dasharray:7;}
	.st7{fill:#FCFCFC;}
	.st8{fill:none;}
	.st9{fill:#707070;}
	.st10{font-family:'Assistant';}
	.st11{font-size:20px;}
	.st12{font-size:18px;}
	.st13{fill:#7ECE7E;stroke:#707070;stroke-width:0.8504;stroke-miterlimit:10;}
	.st14{fill:#FFFFFF;stroke:#707070;stroke-width:0.8504;stroke-miterlimit:10;}
	.st15{font-size:14px;}
	.st16{fill:#ABF2F4;stroke:#707070;stroke-width:0.8504;stroke-miterlimit:10;}
	.st17{fill:#E27D23;stroke:#FFFFFF;stroke-width:0.8504;stroke-miterlimit:10;}
</style>
<g id="Layer_1_1_">
	
		<image style="overflow:visible;enable-background:new    ;" width="1699" height="2340" xlink:href="36C1EAF3.jpeg"  transform="matrix(0.7468 0 0 0.7468 0.25 -0.75)">
	</image>
	<rect x="-28.8" y="-10.8" class="st0" width="1318" height="1798"/>
	<path class="st1" d="M243.3,1127.3c0,0,96.2,0.9,157,1c67.7,0.1,294.2-15,337-23c3.3-0.6,103.3-51.8,117-84
		c18.1-42.8,24.5-136,2-184c-26.5-56.6-43.3-64.1-105.8-66.4L-4.8,757.8c6.1,488.5,7.1,846.5,6.1,936.5c34.9,20,98.3,39.6,210.9,4.9
		C221.6,1509.4,233.8,1316.8,243.3,1127.3z"/>
	<g>
		<g>
			<line class="st2" x1="887.3" y1="103.3" x2="887.3" y2="106.8"/>
			<polyline class="st3" points="887.3,113.8 887.3,1435.3 887.3,1739.8 			"/>
			<line class="st2" x1="887.3" y1="1743.3" x2="887.3" y2="1746.8"/>
		</g>
	</g>
	<line class="st4" x1="182.4" y1="1055.3" x2="881.3" y2="1055.3"/>
	<polygon class="st5" points="535.3,1138.3 541.3,1374.3 238.3,1371.3 250.3,1135.3 	"/>
	<polygon class="st5" points="328.3,1483.3 326.3,1651.3 665.3,1656.3 666.3,1521.3 632.3,1489.3 	"/>
	<polygon class="st5" points="228.3,1584.8 284.3,1584.8 290.3,1621.3 290.3,1635.8 285.8,1635.8 286.8,1652.3 285.8,1671.8 
		259.3,1671.8 259.3,1677.8 224.8,1677.8 224.8,1584.8 	"/>
</g>
<g id="Layer_2">
	<path class="st4" d="M182.1,852.1c0,0,82.5-7.5,97.5,9s77.6,111.1,142.5,103.5c76.5-9,76-67.6,109.5-81c52.5-21,90-18,166.5,6
		c121.6,38.2,145.5-87,183-93"/>
</g>
<g id="Layer_3">
	<path class="st4" d="M331.5,933.1c-17.6,58.4,5.4,106.5,1.4,115.5c-8.1,18.3,71.5-15,94.5-85.2"/>
	<line class="st4" x1="884.4" y1="384.1" x2="1200.9" y2="384.1"/>
	<line class="st6" x1="1241.4" y1="384.1" x2="1275.9" y2="384.1"/>
	<path class="st5" d="M469.3,487.3h-56.7c-2.2,0-4,1.8-4,4l-2,132.7c0,0.6-0.5,1-1,1l-125.9-3.2c-1.8,0-3.5,1.1-4,2.9l0,0
		c-0.5,1.6-1.9,2.8-3.6,2.9l-24.6,1.8c-2.2,0.2-3.8,2-3.7,4.2l0.3,6.8c0.1,2.1-1.4,3.9-3.4,4.2l-10.3,1.6c-2,0.3-3.4,2-3.4,4V729
		c0,2.2,1.8,4,4,4h8.3c2.2,0,4,1.8,4,4v9.2c0,2.2,1.8,4,4,4h21.3c1.1,0,2.1,0.4,2.9,1.2l4.2,4.2c0.8,0.8,1.8,1.2,2.9,1.2h132.2
		c3.1,0,5.1,3.4,3.5,6.1l-16.8,29.5c-1.3,2.2-0.2,5,2.2,5.8c0,0,33.3,20.8,63,20.8"/>
	<path class="st7" d="M455.4,487.3h56.7c2.2,0,4,1.8,4,4L518,624c0,0.6,0.5,1,1,1l210,3.8c1.8,0,3.5,1.1,4,2.9l0,0
		c0.5,1.6,1.9,2.8,3.6,2.9l24.6,1.8c2.2,0.2,3.8,2,3.7,4.2l-0.3,6.8c-0.1,2.1,1.4,3.9,3.4,4.2l10.3,1.6c2,0.3,3.4,2,3.4,4V736
		c0,2.2-1.8,4-4,4h-8.3c-2.2,0-4,1.8-4,4v9.2c0,2.2-1.8,4-4,4h-21.3c-1.1,0-2.1,0.4-2.9,1.2l-4.2,4.2c-0.8,0.8-1.8,1.2-2.9,1.2
		l-216.3-7c-3.1,0-5.1,3.4-3.5,6.1l16.8,29.5c1.3,2.2,0.2,5-2.2,5.8c0,0-33.3,20.8-63,20.8"/>
	<path class="st5" d="M-2.7,1700c0,0,852,0,860-4c2-48.8-6.8-93.1,6-161c15.1-80,156.3-183.8,220.3-241.3
		c146.7-131.7,116.7-293.7,116.7-293.7s-51,10-92,11c-4.7,0.1-13.3-8.7-14-18c-0.7-9.5,10-19,10-19l88.3-11.1l8.1-8.6l1-18.5
		c0,0-4-9.3-9.1-8.8c-34.9,3.3-156.7,14.4-232.3,15.1c-4.1,0-9.9-4.3-14.3-8.4c-4.2-3.8-6.4-9.4-5.9-15.1l4.1-50
		c0.9-10.5,8.8-23,19.2-24.6l233.9-32l4-727c-31.7-6-703-7.8-783.2-8c-4.2,0-7.5,3.6-7.1,7.8l11.1,125.9
		c0.7,18.4-19.5,37.6-37.9,38.4c-48.4,1.9-138.7-6.5-192.5-3.5c-4.9,0.3-8.8,4.3-9,9.2c-3.2,113.7-0.5,1281.5-3,1284.5
		c-8,9.8-27.5,10.4-37.1,2.2c-0.6-0.5-1.1-1-1.5-1.4c1.5-54.7,1.9-449.8,2-519.5c0-3.8-4.6-5.7-7.3-3
		C109.9,1044.2,21.9,1134.4-2.7,1163v-60L140,960.3c1.5-1.5,2.2-3.5,2.1-5.5c0,0-2-246.8-6.2-246.7L-2.7,712v-43l132.5,1
		c3.6,0,6.5-2.8,6.6-6.4l5.6-562.4c0.1-4.1-3.5-7.3-7.6-6.9L-2.7,110c0,0-11.4-44.3,0-46c135-22,456-28.3,504.6-25.8
		c3.6,0.2,6.4-3,6.4-6.6V0h44l-1.2,20.6c-0.4,6.7,4.9,12.4,11.7,12.5L837.3,35l428.8,14l1.8,35.8l-28.6-0.8l2,776l27-2v41l-29-1
		c0,0,14.3,176-13,233c-3.4,7,31-7.2,42,3c9.3,8.6,9.3,29.1,0,38c-7.9,7.5-29.2,3.9-42.9,0.5c-7.6-1.9-19-0.6-20.2,7.1
		c-4.9,29.5-42.9,89.8-42.9,89.8l-74.3,63l2.1,31.3l73.1,73.3l102.8-3c0,0,6.3,29.5,0,42l-231.8,4c0,0-10.9-25.7-4-35
		c17.6-0.4,71-5,71-5l-58-65c0,0-120,116.1-139,167c-13.3,35.6-3,152-3,152H1266l2.2,53.5H-2.7V1700z"/>
	<path class="st8" d="M976.4,881.2l0.3,11.5c0.1,3.2,2.7,5.7,5.9,5.5l210.4-9.9c3.9-0.2,7-3.3,7.2-7.2l1.3-25.4
		c0.2-3.5-2.9-6.4-6.4-6l-213.1,25C978.8,875.2,976.4,878,976.4,881.2z"/>
	<path class="st0" d="M180.8,98l4,92.6c0.3,7,5.9,12.7,13,12.9l178.4,7.1c4.8,0.2,8.7-4,8.1-8.8l-13.8-116c-0.7-5.5-5.5-9.6-11-9.3
		l-167.2,8.9C185.6,85.7,180.5,91.3,180.8,98z"/>
	<circle class="st5" cx="884.4" cy="56" r="46.5"/>
	<circle class="st0" cx="884.4" cy="56" r="8.5"/>
</g>
<text transform="matrix(1 0 0 1 584.4307 64.5)" class="st9 st10 st11">רחוב הכרמל</text>
<text transform="matrix(1 0 0 1 601.48 1719)" class="st9 st10 st12">רחוב ויצמן</text>
<text transform="matrix(-5.763902e-07 -1 1 6.670129e-06 168.5437 346.4026)" class="st9 st10 st12">רחוב דוד אלעזר</text>
<text transform="matrix(-5.763902e-07 -1 1 6.670129e-06 168.5437 1087.4026)" class="st9 st10 st12">רחוב דוד אלעזר</text>
<text transform="matrix(1 0 0 1 425.2059 687.3333)" class="st9 st10 st12">בית ספיר</text>
<text transform="matrix(1 0 0 1 332.0541 1259)" class="st9 st10 st12">היכל התרבות</text>
<text transform="matrix(4.216467e-07 -1 1 -2.193692e-06 1224.761 288.7325)" class="st9 st10 st12">רחוב ארבל</text>
<text transform="matrix(4.216467e-07 -1 1 -2.193692e-06 1230.3011 962.7442)" class="st9 st10 st12">רחוב ארבל</text>
<path class="st1" d="M528.1,479.6c3.5-68.6-13-168.3,193.5-154.5c209.3,14,165.4,281.4,80,292.5c-37.6,4.9-272-2-272-2
	S527.4,494,528.1,479.6z"/>
<g id="turtule">
	<circle class="st13" cx="794.5" cy="517" r="23.1"/>
	<path class="st14" d="M779.6,520.1l-1.2,2.1c0,0-0.4,1.6,0.6,1.7s3.5-1.2,3.5-1.2s-0.5-2.6-1.2-3
		C780.6,519.4,779.6,520.1,779.6,520.1z"/>
	<path class="st14" d="M809.6,516.9c0,0,1.5,4.5-0.5,10.4c-0.3,0.9-1.8,0-2,0s-0.9,0.1-1.4,0c-0.5-0.1-2.3-0.9-2.3-0.9
		s-0.8-0.2-0.9-0.3C801.1,524.8,809.6,516.9,809.6,516.9z"/>
	<path class="st14" d="M779.1,522.2c5.1,4.2,19.2,8.6,25.5,1.8c6.3-6.8,4.3-6.5,6.7-11.7c0.8-1.7,0.4-3.2-0.2-4.2
		c-0.6-0.8-0.7-1.6-0.7-1.6s-18.8,0.2-20.2,1.1c-1.4,0.9-11.3,12.8-11.3,12.8S778.7,521.9,779.1,522.2z"/>
	<g>
		<path class="st14" d="M777.3,517.6c0,0,3.1-2.2,4.1-3.9c0.2-0.3,2.5-6.6,7.3-8.2c1-0.3,4.1-1.1,5.9-0.3c2.8,1.3,8.2,1.1,8.2,1.1
			s-2.5,2.1-4.4,2.8c-1.9,0.6-5.3,4.6-5.8,5.7c-0.5,1.1-1.2,2.5-1.7,3.1c-4.4,4.4-9.8,3.6-10.7,3.5
			C776.8,520.9,777.3,517.6,777.3,517.6z"/>
	</g>
	<path class="st14" d="M801.1,517.2"/>
	<path class="st14" d="M810.1,506.5c0,0-5.4-1.1-7-0.2s-1.6,1.1-1.6,1.3c0,0.1-1.1,4.6-0.6,5.4c0.8,1.3,2.8,1.1,3.2,0.4
		c0.4-0.7,0.9-3.1,1.7-4.1C806.6,508.3,810.1,506.5,810.1,506.5z"/>
	<path class="st14" d="M794.9,514.1c0.1-0.2,1.1-2.4,2.2-2.5c1.1-0.1,3.2-0.2,3.1,1.3c-0.1,1.5,0.3,6.5-2,10.9c-1.4,2.7-6,5-7.2,5.2
		c-1.2,0.1-2.3,0.5-2.6,0.2c-0.3-0.3-0.6-0.6-1.2-0.6s-0.2-0.5-0.8-0.6c-0.6-0.1-1.1-0.1-0.9-0.5s4.2-7.2,6.9-8.2
		C795,518.1,794.4,515.4,794.9,514.1z"/>
	<path class="st14" d="M804.1,510.1c0.4-0.9,0.8-1.6,1.1-2.1c0.6-0.9,0.9-1.2,1.1-1.3c0.6-0.4,1.2-0.5,1.4-0.5
		c0.5-0.1,0.9,0,1.2,0.1"/>
	
		<ellipse transform="matrix(0.4644 -0.8856 0.8856 0.4644 -19.6153 983.1796)" class="st14" cx="803.1" cy="507.8" rx="1.5" ry="1.2"/>
	<text transform="matrix(1 0 0 1 774.6998 555.75)" class="st9 st10 st15">פסל צב</text>
</g>
<text transform="matrix(1 0 0 1 397.5574 712)" class="st9 st10 st12">מוזיאון ארכיאולוגי</text>
<circle class="st16" cx="319.5" cy="815.3" r="33.8"/>
<path class="st17" d="M314.2,796.4c0.5-0.6,2.3-2.5,5.2-2.8c1.9-0.2,4.6,0.1,4.8,1.2c0.3,1.4-1.8,6.8-8.2,5.2
	c-3.7-1-8.5-3.5-8.5-3.5l-0.2,6.3C307.3,802.8,311.6,799.3,314.2,796.4z"/>
<circle class="st5" cx="321.1" cy="796" r="0.9"/>
<path class="st17" d="M334.7,816.5c-0.8,0.1-3.4,0.2-5.7-1.5c-1.5-1.1-3.3-3.3-2.7-4.2c0.8-1.2,6-3.7,9.5,1.9c2,3.2,3.8,8.4,3.8,8.4
	l4.5-4.5C344.1,816.6,338.6,816.1,334.7,816.5z"/>
<ellipse transform="matrix(0.6872 -0.7265 0.7265 0.6872 -486.8602 493.3116)" class="st5" cx="329.4" cy="812" rx="0.9" ry="0.9"/>
<path class="st17" d="M312.6,827.5c0.6-0.5,2.8-1.9,5.6-1.7c1.9,0.2,4.5,1.1,4.5,2.1c0,1.5-3.2,6.3-9.1,3.4
	c-3.4-1.7-7.6-5.2-7.6-5.2l-1.5,6.2C304.6,832.2,309.5,829.8,312.6,827.5z"/>
<ellipse transform="matrix(0.2073 -0.9783 0.9783 0.2073 -557.2124 969.304)" class="st5" cx="319.5" cy="828.5" rx="0.9" ry="0.9"/>
<text transform="matrix(1 0 0 1 290.0081 863.1667)" class="st9 st10 st15">בריכת דגים</text>
</svg>
