<svg id="Layer_1" data-name="Layer 1" xmlns="http://www.w3.org/2000/svg" viewBox="0 0 511.53 397.04"><defs><style>.cls-1{fill:#fdc415;}</style></defs><title>cat</title><path class="cls-1" d="M207,181.25l.12,7.83q-1.87,31.81-23.68,52.19t-53.69,20.26h-.2q-31.81-1.86-52.28-23.78T57.11,183.95l.15-4.3q3.41-31.17,13.27-42.18t11.81-10.74a4,4,0,0,1,3.61.32,4.2,4.2,0,0,1,2.14,3.2q-.25,1.56,3.65,13.42T108,160.27q.29-8.4,1.45-19.7A136.2,136.2,0,0,1,113.73,118a106.54,106.54,0,0,1,41-55.12,4.13,4.13,0,0,1,4.4,0,3.77,3.77,0,0,1,2.13,3.59,54.27,54.27,0,0,0,5.38,25.8,166.6,166.6,0,0,0,14.08,23,196.78,196.78,0,0,1,17,28.06Q205.61,158.91,207,181.25Zm-77.16,71.87A24,24,0,0,0,147.79,246q7.38-7.27,8-18.6l-.12-2.15a41.75,41.75,0,0,0-3.3-15.17A78.51,78.51,0,0,0,146,198.72q-2.42-3.6-4.63-7.49a35.41,35.41,0,0,1-3.43-8.43,37.85,37.85,0,0,0-5.53,7.44,34.47,34.47,0,0,0-3.41,8.29,52.33,52.33,0,0,0-1.79,9.52q-.46,4.88-.61,9.37a4,4,0,0,1-4.24,4,13.58,13.58,0,0,1-8.49-3.32,18.6,18.6,0,0,1-4.84-7.11q-2.29,4-3.19,13.19l-.05,1.56q-.19,11.34,6.68,19.1A24,24,0,0,0,129.84,253.12Z" transform="translate(-5.39 2.05)"/><path d="M474.5,36.5c9.9,12.41,20.08,36.79,25.33,51.76,10.92,31.15,21.9,65.18,11.33,96.45-4.37,12.93-12.18,24.38-18,36.71-13.76,29.13-16.09,62.16-18.21,94.31-.44,6.69-.67,14.08,3.52,19.31,2.4,3,6,4.88,8.18,8,6.17,8.82-3.94,22-14.69,21.39s-19-10.39-22.2-20.66-2.74-21.28-4-32,1.49-23.11-7.29-29.33c-1.68,26-8,57.25,11.75,74.25,4.35,3.73,9.89,7.28,9.6,13.48a10.34,10.34,0,0,1-4.84,8c-5.48,3.59-12.12,2.73-18,.76a51.84,51.84,0,0,1-32.7-33.92,48.49,48.49,0,0,0-12.45,17.52c9.11,1.34,18.86,3.43,24,12a12.5,12.5,0,0,1,.39,12.54c-3.38,5.95-9.94,7.18-15.6,5.93-48.11-10.58-86.49-3.86-130-7.39-1-.08-.8-1.32-1.59-1.86-13.53-9.32-18-15.2-23.39-14.46-46.92,6.44-95.33,12.3-141.11.18S15.68,323,7.75,276.27c-1-5.76-1.37-11.95,1.62-17.11A12.08,12.08,0,0,1,16,253.7c5.38-1.78,9,1.28,12.09,4.4,15.3,15.37,24.87,35.82,40.82,50.51,23.79,21.92,58.14,27.85,90.47,28.76,24.56.69,57.19-1.2,73.16-19.87,15.56-18.19,9.63-45.69,13.06-69.38,8.58-59.39,52.88-113.67,111.05-128.41,3.87-1,7.93-1.87,11-4.41,6.51-5.38,5.82-15.61,2.94-23.56S363.13,76,363.84,67.55c1.17-13.87,16.34-25.16,13.28-38.74C375.83,23.1,360.4,6.68,365.55,1c5.55-6.16,26.78,10,30.62,14,.58.61,13.3-1.75,18-1.74,4.16,0,8.29.72,12.44,1,8.88.69,19.85,5.27,26.35-3.26,2.51-3.29,8.18-3,12-1.51,3.28,1.28,10.4,20.84,9.83,27.54Z" transform="translate(-5.39 2.05)"/><path d="M473.44,37.56c8.41,10.78,14.14,23.8,19.32,36.36a396.6,396.6,0,0,1,14,40.35c4.64,15.94,8,32.56,7,49.25-1.12,17.35-8.49,31.85-16.6,46.85-14.76,27.29-20,56.82-22.44,87.45-.6,7.51-1.38,15.09-1.49,22.63-.08,5.48.61,11.26,4.18,15.66,4.54,5.6,12.27,8.8,8.61,17.45A15,15,0,0,1,469,362.49C450.19,358,449,334.27,447.92,319c-.54-7.58-.66-15.26-1.38-22.82-.55-5.79-2.26-11-7-14.74A1.52,1.52,0,0,0,437,282.5c-1.55,23-8.23,52.85,8.78,72,4.05,4.55,13,8.74,12.56,15.77-.7,11.78-16.52,9.23-23.64,6.34a50.74,50.74,0,0,1-29-31.87,1.52,1.52,0,0,0-2.51-.66,52.52,52.52,0,0,0-12.69,17.83c-.34.78-.16,2,.9,2.2,5.29.8,10.83,1.71,15.59,4.31,6.88,3.75,12.85,12.87,6.47,20-4.4,4.91-10.71,3.62-16.39,2.46-7-1.41-14-2.52-21.05-3.36-24.72-2.93-49.57-2-74.4-2.11-5.7,0-11.4-.11-17.1-.33q-4.34-.17-8.68-.44a9.6,9.6,0,0,1-6.1-2c-4.61-3.19-9-6.67-13.44-10-2.33-1.76-4.83-3.74-7.74-4.43-3.93-.93-8.48.56-12.37,1.08-7.55,1-15.11,2-22.69,2.81-13.24,1.48-26.52,2.6-39.84,3-48.44,1.43-98.73-8.43-134.35-43.59C24.47,316.66,13.26,298,9.44,277.28,8.28,271,7.37,263,12.17,257.88c7-7.49,14,.14,18.8,5.53,8.25,9.29,14.87,19.84,22.33,29.74,13.39,17.77,30,30.36,51.22,37.35,20.75,6.83,43.14,8.67,64.88,8.47,18.9-.17,40.3-2,56.22-13.27,17.06-12.06,19.42-32.18,20-51.56.32-11.5.61-22.82,2.91-34.14a157.9,157.9,0,0,1,8.86-28.91,161.83,161.83,0,0,1,36-53.38,142.93,142.93,0,0,1,54-33.72c7.87-2.65,19.19-3.15,24.11-10.83,5.21-8.13,2-18.46-1.35-26.59-2.26-5.55-4.87-11.24-4.86-17.36s3.06-11.62,6-16.76c4-7.06,9.58-15.49,7.3-24.06-1.75-6.59-7.49-12.11-10.54-18.15-1.29-2.57-3.84-7.6,0-9.07C371.19,0,376.24,3,378.8,4.34A81.73,81.73,0,0,1,389,10.88c1.93,1.43,4.23,4.37,6.43,5.34,1.78.79,4.15.08,6-.15a119.78,119.78,0,0,1,12.41-1.38c10.12-.21,20.53,4,30.56,2.7,4.9-.63,6.77-3.24,10.44-6,4.93-3.76,10-1,12.33,3.57,3.19,6.34,6.54,14.83,6.2,22.06l2.8-.76-.36-.5c-1.13-1.54-3.73,0-2.59,1.51l.36.5a1.51,1.51,0,0,0,2.8-.76c.34-7.24-2.84-15.29-5.76-21.76-2.84-6.29-7.39-10.48-15-7.77-2.18.77-3,2-4.6,3.58A12.49,12.49,0,0,1,442,14.57c-5.15.15-10.29-1.29-15.39-1.83-5.55-.59-11-1.33-16.63-.75-3.8.39-8.41,1.92-12.2,1.5-1.77-.2-3.61-2.35-5.59-3.89a90.51,90.51,0,0,0-10-6.76c-4.19-2.43-12.2-7.17-17-3.59-5,3.75-.51,11.51,1.8,15.42,4.67,7.95,11.13,14,7.91,23.88-3.15,9.67-11,17.33-12.46,27.67-1.71,12.56,7.79,22.72,8.6,34.88.5,7.46-2.49,13.31-9.8,15.78-5.29,1.79-10.79,2.85-16.08,4.69a140,140,0,0,0-28.55,13.81c-36.4,23-62.52,61.72-71.08,103.82-2.25,11.07-2.69,22.13-3,33.39-.31,12-.58,24.65-5.87,35.64-10.31,21.42-36.77,26.33-58.21,27.47-23.34,1.24-47.8-.35-70.24-7.15-12.07-3.66-23.7-9.1-33.63-17C64.34,303.43,56.58,292.81,49,282.17c-6.65-9.36-13.56-20.82-22.88-27.79-7.54-5.64-16.71-1.11-19.53,7.29-3.26,9.7.7,22.23,4.06,31.42A105,105,0,0,0,25.74,320.4c28.73,37.83,75.5,54.56,121.54,57.23,29.11,1.69,58.25-1.43,87.08-5.24,4.75-.63,10.92-2.85,15.41-.69,3.74,1.79,6.93,4.84,10.19,7.34,2.95,2.26,5.78,4.8,8.7,7a5.22,5.22,0,0,0,2.84,1.21c6.37,1.19,13.47.81,19.94,1,26.4.59,52.84-.94,79.17,1.65q11.48,1.13,22.83,3.27c4.92.94,10,2.64,15,1.44a13.89,13.89,0,0,0,8.66-20.74c-5.11-8.83-15.54-11.27-24.86-12.68l.9,2.2a50.61,50.61,0,0,1,12.22-17.22l-2.51-.66A54.08,54.08,0,0,0,422.3,373c8.35,6.19,21.83,12.68,32.07,7.37,4.09-2.12,7-6.11,7-10.82-.08-5.08-3.79-8.65-7.43-11.69C443.58,349.2,439,338.48,438,325.12c-1.06-14.22,1.09-28.46,2-42.62l-2.56,1.06c6.39,5,6.26,13,6.43,20.42.18,8,1,16,1.68,24,1.08,13,4.32,27.06,16,34.55,9.29,5.94,21.39,3.55,26.63-6.54,2.15-4.14,2.52-9.07,0-13.15-1.43-2.36-3.63-4-5.67-5.82a17.68,17.68,0,0,1-6.27-12.62c-.71-8.12.62-16.68,1.25-24.77.71-9.13,1.57-18.26,2.88-27.33,2.48-17.19,6.56-34.33,14-50.1,7-14.93,16.68-28.61,20.36-44.94s2.17-33.19-1.41-49.34c-3.92-17.7-9.89-35.18-16.63-52-5.62-14-11.86-28.46-21.21-40.45C474.37,33.92,472.27,36.06,473.44,37.56Z" transform="translate(-5.39 2.05)"/><path d="M441.2,108.74c-8.49,11.22-21.24,17.88-35.42,15-7.38-1.48-18.39-6-20.74-14.08l-1.45,1.9a33.86,33.86,0,0,1,13.3,1.37l-.66-2.51c-3.54,3.78-8.22,8.08-13.73,8.3-5.73.23-8.36-4.8-9.55-9.66-.46-1.87-3.35-1.08-2.89.8,1.34,5.47,4.33,10.9,10.42,11.75,7,1,13.4-4.3,17.87-9.07a1.52,1.52,0,0,0-.66-2.51,36.29,36.29,0,0,0-14.09-1.48,1.52,1.52,0,0,0-1.45,1.9c2.76,9.46,15.06,14.83,23.85,16.37,15.31,2.67,28.69-4.56,37.8-16.61,1.16-1.54-1.44-3-2.59-1.51Z" transform="translate(-5.39 2.05)"/><path d="M408.79,89.1c-6.35-11.84,21.34-14.84,27.69-15.41l-1.3-2.26c-2,4.46-3.91,9.57-7.62,12.94-5.13,4.67-12.65,4.51-19.14,4.09-1.93-.12-1.92,2.88,0,3,6.82.44,14.49.4,20.14-4,4.62-3.61,6.85-9.33,9.21-14.5.42-.93-.05-2.37-1.3-2.26-8.76.79-38.59,4.43-30.28,19.92.91,1.7,3.5.19,2.59-1.51Z" transform="translate(-5.39 2.05)"/><path d="M384.95,109.9c1.63-8.69,4.17-18.6,2.88-27.52-1.16-8-8.87-9.87-15.41-12.67-1.76-.75-3.29,1.83-1.51,2.59,6.25,2.67,13.53,4.13,14.1,11.85.62,8.25-1.44,16.9-3,24.95-.35,1.89,2.54,2.7,2.89.8Z" transform="translate(-5.39 2.05)"/><path d="M386.49,86.49c-3,.44-7.67.24-10.26-1.52-4.1-2.78-3.52-8.72-3.17-13,.16-1.92-2.84-1.91-3,0-.44,5.27-.54,11.39,4,15,3.33,2.7,9.19,2.93,13.25,2.34,1.9-.28,1.09-3.17-.8-2.89Z" transform="translate(-5.39 2.05)"/><path d="M379.83,77.33c0-.24,0-.48,0-.73,0-.48.19-.33-.18.39l-2.05.54h0l-.69-.9c.07.21,0-.46,0-.19,0,.09,0,.18,0,.27,0,.3,0,.59,0,.89,0,1,0,1.93,0,2.89a1.5,1.5,0,0,0,3,0c0-1.12,0-2.24-.06-3.35,0-.87,0-1.64-.82-2.2a1.51,1.51,0,0,0-2.05.54,4.06,4.06,0,0,0-.24,1.85,1.5,1.5,0,0,0,3,0Z" transform="translate(-5.39 2.05)"/><path d="M415.52,78.75a1.8,1.8,0,0,1,0,.21c.06.26,0-.25,0,0l0,.27c.06.47.1.93.15,1.4a10.22,10.22,0,0,0,.3,2.3,1.54,1.54,0,0,0,1.85,1,1.51,1.51,0,0,0,1-1.85,1.34,1.34,0,0,1,0-.21c-.05-.26,0,.25,0,0l0-.27c-.06-.47-.1-.93-.15-1.4a10.22,10.22,0,0,0-.3-2.3,1.54,1.54,0,0,0-1.85-1,1.51,1.51,0,0,0-1,1.85Z" transform="translate(-5.39 2.05)"/><path d="M459.82,44.46c-11.13-8.12-5.56-22.67,2.45-30.62a1.5,1.5,0,0,0-2.12-2.12c-9.57,9.5-14.55,26.06-1.84,35.33,1.56,1.14,3.06-1.46,1.51-2.59Z" transform="translate(-5.39 2.05)"/><path d="M458.83,15.82a12.57,12.57,0,0,1,2.71,8.52c-.08,1.93,2.92,1.93,3,0A15.74,15.74,0,0,0,461,13.7c-1.21-1.51-3.32.63-2.12,2.12Z" transform="translate(-5.39 2.05)"/><path d="M393.56,35.33c2.54-11.31-10.14-18.52-18-24.16C374,10,372.49,12.64,374,13.76c6.27,4.5,18.66,11.68,16.62,20.77-.42,1.88,2.47,2.68,2.89.8Z" transform="translate(-5.39 2.05)"/><path d="M439.29,284.29l13.7-40.4c3.65-10.76,7.07-23.49,18-29.09,1.72-.88.2-3.47-1.51-2.59-9.85,5.07-14.09,15.58-17.5,25.51-5.24,15.24-10.35,30.52-15.52,45.78-.62,1.83,2.28,2.62,2.89.8Z" transform="translate(-5.39 2.05)"/><path d="M390.65,361.68a153.41,153.41,0,0,0-28.72.6c-1.9.22-1.92,3.22,0,3a153.41,153.41,0,0,1,28.72-.6c1.93.14,1.92-2.86,0-3Z" transform="translate(-5.39 2.05)"/><path d="M406.15,344.33a21.42,21.42,0,0,0-.68-7.74,1.5,1.5,0,0,0-2.89.8,19,19,0,0,1,.57,6.94c-.18,1.92,2.82,1.91,3,0Z" transform="translate(-5.39 2.05)"/><path d="M405.48,335.67c-.89-14.72-.78-29.91-2.9-44.5a39.75,39.75,0,0,0-16.86-26.91c-1.58-1.11-3.09,1.49-1.51,2.59,10.2,7.14,15.07,17.78,15.92,30,.9,12.94,1.57,25.89,2.35,38.84.12,1.92,3.12,1.93,3,0Z" transform="translate(-5.39 2.05)"/></svg>