<?xml version="1.0" encoding="iso-8859-1"?>
<!-- Generator: Adobe Illustrator 18.0.0, SVG Export Plug-In . SVG Version: 6.00 Build 0)  -->
<!DOCTYPE svg PUBLIC "-//W3C//DTD SVG 1.1//EN" "http://www.w3.org/Graphics/SVG/1.1/DTD/svg11.dtd">
<svg version="1.1" id="Capa_1" xmlns="http://www.w3.org/2000/svg" xmlns:xlink="http://www.w3.org/1999/xlink" x="0px" y="0px"
	 viewBox="0 0 297 297" style="enable-background:new 0 0 297 297;" xml:space="preserve">
<g>
	<path d="M128.882,90.66c-11.275,0-22.397,4.489-32.833,14.925c-8.13,8.132-9.623,22.868-19.622,30.771
		c-20.26,16.014-40.147,4.907-56.77,21.528c-33.264,33.264-18.206,72.137,15.059,105.401C54.934,283.505,77.232,297,99.077,297
		c14.093,0,27.994-5.612,41.039-18.657c16.622-16.621,5.516-36.509,21.529-56.769c7.902-9.999,22.638-11.49,30.771-19.623
		c26.61-26.61,14.565-57.709-12.047-84.32C164.194,101.455,146.357,90.66,128.882,90.66z M133.216,202.888
		c-5.339,5.339-12.325,8.012-19.291,8.012c-6.885,0-13.749-2.612-18.98-7.843c-10.523-10.523-10.447-27.656,0.168-38.272
		c5.338-5.338,12.325-8.011,19.29-8.011c6.886,0,13.75,2.611,18.983,7.844C143.907,175.139,143.831,192.273,133.216,202.888z"/>
	<path d="M293.883,28.211L269.792,4.119c-1.357-1.355-3.194-2.117-5.111-2.117c-1.916,0-3.754,0.762-5.11,2.116l-5.841,5.841
		l-6.935-6.936c-4.033-4.031-10.568-4.031-14.602,0c-4.032,4.032-4.032,10.569,0,14.602l6.934,6.935l-9.49,9.49l-6.936-6.935
		c-4.031-4.031-10.57-4.032-14.601,0.001c-4.032,4.032-4.032,10.568,0.001,14.601l6.935,6.935l-42.973,42.972
		c6.171,4.352,12.351,9.611,18.525,15.787c6.16,6.158,11.424,12.346,15.778,18.536l30.936-30.936l6.936,6.935
		c2.016,2.016,4.658,3.024,7.301,3.024c2.643,0,5.283-1.008,7.301-3.024c4.031-4.032,4.031-10.569,0-14.601l-6.935-6.935l9.491-9.49
		l6.935,6.935c2.017,2.017,4.658,3.024,7.301,3.024c2.642,0,5.284-1.008,7.3-3.023c4.032-4.032,4.032-10.568,0.001-14.601
		l-6.935-6.935l17.886-17.887C296.705,35.608,296.705,31.033,293.883,28.211z"/>
</g>
<g>
</g>
<g>
</g>
<g>
</g>
<g>
</g>
<g>
</g>
<g>
</g>
<g>
</g>
<g>
</g>
<g>
</g>
<g>
</g>
<g>
</g>
<g>
</g>
<g>
</g>
<g>
</g>
<g>
</g>
</svg>
