<?xml version="1.0" encoding="iso-8859-1"?>
<!-- Generator: Adobe Illustrator 19.0.0, SVG Export Plug-In . SVG Version: 6.00 Build 0)  -->
<svg version="1.1" id="Layer_1" xmlns="http://www.w3.org/2000/svg" xmlns:xlink="http://www.w3.org/1999/xlink" x="0px" y="0px"
	 viewBox="0 0 511.388 511.388" style="enable-background:new 0 0 511.388 511.388;" xml:space="preserve">
<g>
	<g>
		<path d="M473.831,37.562C449.303,13.03,414.383,0.066,372.843,0.066c-79.832,0-173.34,45.848-250.136,122.64
			c-58.02,58.02-98.924,126.292-115.18,192.236C-8.901,381.606,1.763,438.03,37.559,473.826
			c24.528,24.532,59.448,37.496,100.988,37.496c79.832,0,173.34-45.844,250.136-122.64c58.02-58.02,98.924-126.288,115.176-192.24
			C520.291,129.778,509.627,73.354,473.831,37.562z M202.955,421.266c-0.752,0.752-1.772,1.172-2.828,1.172
			c-0.124,0-0.248-0.008-0.376-0.02c-21.384-2.024-47.872-16.948-70.848-39.924s-37.904-49.464-39.928-70.852
			c-0.112-1.188,0.312-2.36,1.156-3.204c0.844-0.844,2.016-1.264,3.204-1.156c21.384,2.024,47.872,16.948,70.848,39.928
			c22.98,22.98,37.908,49.464,39.928,70.848C204.219,419.246,203.799,420.422,202.955,421.266z M343.411,343.414
			c-0.752,0.752-1.772,1.172-2.828,1.172c-0.128,0-0.252-0.008-0.38-0.02c-32.82-3.14-75.256-27.14-110.748-62.632
			c-35.492-35.488-59.492-77.92-62.636-110.748c-0.112-1.188,0.312-2.364,1.156-3.208c0.844-0.848,2.02-1.264,3.208-1.156
			c32.82,3.144,75.252,27.144,110.748,62.636c35.496,35.492,59.492,77.924,62.636,110.744
			C344.679,341.39,344.255,342.57,343.411,343.414z M421.263,202.954c-0.752,0.752-1.772,1.172-2.828,1.172
			c-0.124,0-0.252-0.004-0.376-0.016c-21.388-2.028-47.872-16.952-70.848-39.928c-22.98-22.976-37.904-49.464-39.928-70.852
			c-0.112-1.188,0.312-2.36,1.156-3.204c0.844-0.844,2.016-1.264,3.204-1.156c21.384,2.024,47.872,16.948,70.848,39.928
			c22.98,22.976,37.904,49.464,39.928,70.852C422.527,200.942,422.107,202.11,421.263,202.954z"/>
	</g>
</g>
<g>
</g>
<g>
</g>
<g>
</g>
<g>
</g>
<g>
</g>
<g>
</g>
<g>
</g>
<g>
</g>
<g>
</g>
<g>
</g>
<g>
</g>
<g>
</g>
<g>
</g>
<g>
</g>
<g>
</g>
</svg>
