<?xml version="1.0" encoding="iso-8859-1"?>
<!-- Generator: Adobe Illustrator 19.0.0, SVG Export Plug-In . SVG Version: 6.00 Build 0)  -->
<svg version="1.1" id="Layer_1" xmlns="http://www.w3.org/2000/svg" xmlns:xlink="http://www.w3.org/1999/xlink" x="0px" y="0px"
	 viewBox="0 0 512.404 512.404" style="enable-background:new 0 0 512.404 512.404;" xml:space="preserve">
<g>
	<g>
		<path d="M490.312,126.14c-13.144-2.396-30.348,3.98-42.672,18.024l24.832,106.376c0.648-0.304,1.288-0.612,1.9-0.948
			c11.432-6.276,38.032-27.948,38.032-93.404C512.404,139.892,504.148,128.66,490.312,126.14z"/>
	</g>
</g>
<g>
	<g>
		<path d="M22.088,126.14C8.256,128.66,0,139.892,0,156.188c0,65.452,26.592,87.124,38.032,93.404
			c0.596,0.336,1.248,0.64,1.888,0.948l24.836-106.372C52.428,130.132,35.224,123.756,22.088,126.14z"/>
	</g>
</g>
<g>
	<g>
		<path d="M137.388,142.804c-18.848-4.652-35.128-3.768-48.24,2.444L55.12,290.976c4.944,9.5,13.164,18.1,26.54,25.088
			l36.256,15.592c6.308,2.712,12.784,4.052,19.176,4.052c4.716,0,9.364-0.828,13.872-2.284l15.916-177.728
			C158.052,149.752,147.1,145.208,137.388,142.804z"/>
	</g>
</g>
<g>
	<g>
		<path d="M423.248,145.248c-13.108-6.216-29.392-7.096-48.236-2.44c-10.468,2.584-22.384,7.652-31.516,14.292l25.108,178.028
			c2.232,0.344,4.476,0.576,6.74,0.576c6.4,0,12.864-1.344,19.128-4.04l36.54-15.724c13.22-6.916,21.36-15.452,26.272-24.904
			L423.248,145.248z"/>
	</g>
</g>
<g>
	<g>
		<path d="M318.116,148.984c-17.532-15.684-39.608-24.796-61.916-24.796c-23.732,0-48.052,9.844-64.6,24.62l-18.988,212.1
			c12.844,17.352,34.056,27.308,60.972,27.308h45.232c28.34,0,53.2-13.184,68.172-34.508L318.116,148.984z"/>
	</g>
</g>
<g>
</g>
<g>
</g>
<g>
</g>
<g>
</g>
<g>
</g>
<g>
</g>
<g>
</g>
<g>
</g>
<g>
</g>
<g>
</g>
<g>
</g>
<g>
</g>
<g>
</g>
<g>
</g>
<g>
</g>
</svg>
