<?xml version="1.0" encoding="iso-8859-1"?>
<!-- Generator: Adobe Illustrator 19.0.0, SVG Export Plug-In . SVG Version: 6.00 Build 0)  -->
<svg version="1.1" id="Layer_1" xmlns="http://www.w3.org/2000/svg" xmlns:xlink="http://www.w3.org/1999/xlink" x="0px" y="0px"
	 viewBox="0 0 511.495 511.495" style="enable-background:new 0 0 511.495 511.495;" xml:space="preserve">
<g>
	<g>
		<g>
			<circle cx="409.177" cy="178.947" r="42.667"/>
			<path d="M497.995,128.159c-18.211-31.883-52.099-51.576-88.817-51.612c-23.467,1.155-45.822,10.344-63.317,26.027l-103.765,16.64
				c-2.055,0.333-3.569,2.1-3.584,4.181V234.67c0.015,2.081,1.529,3.848,3.584,4.181l103.765,16.384
				c4.011,3.243,7.936,6.059,11.947,8.533l-4.608,17.067h-29.355c-4.12-0.083-7.71,2.789-8.533,6.827l-8.533,42.667
				c-1.228,4.55,1.465,9.234,6.015,10.462c0.82,0.221,1.669,0.319,2.519,0.29h22.187l-15.957,60.672
				c-1.927,6.81-1.099,14.104,2.304,20.309c4.539,7.932,12.962,12.843,22.101,12.885h23.296
				c32.283,0.008,60.158-22.598,66.816-54.187l23.808-112.896C508.973,239.815,526.044,177.267,497.995,128.159z M467.801,190.638
				c-6.488,32.345-37.969,53.307-70.315,46.819c-32.345-6.488-53.307-37.969-46.819-70.315c4.738-23.619,23.2-42.081,46.819-46.819
				c32.346-6.488,63.826,14.473,70.315,46.819C469.357,174.897,469.357,182.883,467.801,190.638z"/>
			<path d="M217.147,122.999c-0.219,0.002-0.437,0.02-0.652,0.055l-30.549,4.693c-4.173,0.676-7.222,4.306-7.168,8.533v85.333
				c-0.054,4.227,2.995,7.857,7.168,8.533l30.549,4.864c2.326,0.377,4.517-1.203,4.894-3.529c0.035-0.216,0.053-0.434,0.055-0.652
				V127.235C221.427,124.879,219.504,122.982,217.147,122.999z"/>
			<path d="M132.62,147.289c-3.195-2.736-7.906-2.736-11.101,0c-12.272,13.172-32.898,13.902-46.071,1.631
				c-0.563-0.524-1.106-1.068-1.631-1.631c-18.963-19.817-50.401-20.51-70.218-1.547c-0.527,0.504-1.043,1.02-1.547,1.547
				c-3.065,3.58-2.649,8.966,0.931,12.032c3.195,2.736,7.906,2.736,11.101,0c12.272-13.172,32.898-13.902,46.071-1.631
				c0.563,0.524,1.107,1.068,1.631,1.631c18.963,19.817,50.401,20.51,70.218,1.547c0.527-0.504,1.043-1.02,1.547-1.547
				C136.616,155.741,136.199,150.354,132.62,147.289z"/>
			<path d="M132.62,198.489c-3.195-2.736-7.906-2.736-11.101,0c-12.272,13.172-32.898,13.902-46.071,1.631
				c-0.563-0.524-1.106-1.068-1.631-1.631c-18.963-19.818-50.401-20.51-70.218-1.547c-0.527,0.504-1.043,1.02-1.547,1.547
				c-3.065,3.58-2.649,8.966,0.931,12.032c3.195,2.736,7.906,2.736,11.101,0c12.272-13.172,32.898-13.902,46.071-1.631
				c0.563,0.524,1.107,1.068,1.631,1.631c18.963,19.817,50.401,20.51,70.218,1.547c0.527-0.504,1.043-1.02,1.547-1.547
				C136.616,206.941,136.199,201.554,132.62,198.489z"/>
		</g>
	</g>
</g>
<g>
</g>
<g>
</g>
<g>
</g>
<g>
</g>
<g>
</g>
<g>
</g>
<g>
</g>
<g>
</g>
<g>
</g>
<g>
</g>
<g>
</g>
<g>
</g>
<g>
</g>
<g>
</g>
<g>
</g>
</svg>
