<?xml version="1.0" encoding="iso-8859-1"?>
<!-- Generator: Adobe Illustrator 19.0.0, SVG Export Plug-In . SVG Version: 6.00 Build 0)  -->
<svg version="1.1" id="Layer_1" xmlns="http://www.w3.org/2000/svg" xmlns:xlink="http://www.w3.org/1999/xlink" x="0px" y="0px"
	 viewBox="0 0 512.12 512.12" style="enable-background:new 0 0 512.12 512.12;" xml:space="preserve">
<g>
	<g>
		<path d="M496.112,200.06H275.58v-12.356c4-1.728,8.204-6.248,8.204-11.496c0-6.616-4.928-12.148-11.556-12.148H12.172
			C5.556,164.06,0,169.592,0,176.376c0,5.112,3.58,9.608,7.58,11.332v132.4c0,15.44,12.908,27.952,28.352,27.952H248.48
			c15.436,0,27.1-12.512,27.1-27.952v-40.24c12-1.948,24-13.488,24-27.424V232.06h196.532c8.828,0,16.008-7.18,16.008-16
			C512.12,207.236,504.94,200.06,496.112,200.06z"/>
	</g>
</g>
<g>
</g>
<g>
</g>
<g>
</g>
<g>
</g>
<g>
</g>
<g>
</g>
<g>
</g>
<g>
</g>
<g>
</g>
<g>
</g>
<g>
</g>
<g>
</g>
<g>
</g>
<g>
</g>
<g>
</g>
</svg>
