<?xml version="1.0" encoding="utf-8"?>
<!-- Generator: Adobe Illustrator 21.0.2, SVG Export Plug-In . SVG Version: 6.00 Build 0)  -->
<svg version="1.1" id="Capa_1" xmlns="http://www.w3.org/2000/svg" xmlns:xlink="http://www.w3.org/1999/xlink" x="0px" y="0px"
	 viewBox="0 0 325 325" style="enable-background:new 0 0 325 325;" xml:space="preserve">
<path d="M248.1,103.5c2.2,34.7-14.6,59-14.6,59c2.2-26.7-8.6-63.7-8.6-63.7c-9.3-1.8-24,0.1-24,0.1c2.1,28.8-12.5,54-23.4,63.3
	c5.4-32-3.2-56.2-3.2-56.2c-14.6-3.7-35.6-1.4-35.6-1.4c4.6,34-14.2,59-14.2,59c3.1-23.7-9.6-54.1-9.6-54.1
	c-10.8-0.7-27.9,2.8-27.9,2.8c9,16.1,1.8,51.6,1.8,51.6c-4.9-29-21.5-46.1-21.5-46.1c-95,40.4-69.9,96.2-23.5,112.7
	c43.8,15.6,185,23.3,248.1-4.1C355,199.1,310.6,122.1,248.1,103.5z"/>
</svg>
