<?xml version="1.0" encoding="iso-8859-1"?>
<!-- Generator: Adobe Illustrator 16.0.0, SVG Export Plug-In . SVG Version: 6.00 Build 0)  -->
<!DOCTYPE svg PUBLIC "-//W3C//DTD SVG 1.1//EN" "http://www.w3.org/Graphics/SVG/1.1/DTD/svg11.dtd">
<svg version="1.1" id="Capa_1" xmlns="http://www.w3.org/2000/svg" xmlns:xlink="http://www.w3.org/1999/xlink" x="0px" y="0px"
	 width="46.039px" height="46.04px" viewBox="0 0 46.039 46.04" style="enable-background:new 0 0 46.039 46.04;"
	 xml:space="preserve">
<g>
	<path d="M39.438,10.109c-0.326-0.283-0.771-0.411-1.199-0.351c-0.245-1.027-0.745-1.985-1.497-2.864
		c-2.876-3.357-9.47-4.721-13.244-5.271c0.031-0.345-0.057-0.703-0.276-1.005c-0.482-0.667-1.416-0.818-2.083-0.335
		c0,0-14.41,10.443-14.589,10.577c-0.324,0.24-0.473,0.667-0.473,1.08v29.382c0,0.536,0.298,1.031,0.762,1.296l5.215,2.978
		c0.649,0.371,1.404,0.515,2.145,0.409l24.472-3.484c0.735-0.104,1.293-0.735,1.293-1.478V11.236
		C39.962,10.803,39.766,10.393,39.438,10.109z M13.389,13.298c-0.213,0.03-0.431-0.012-0.618-0.119l-1.963-1.122
		c-0.106-0.061-0.175-0.172-0.182-0.294c-0.006-0.123,0.05-0.24,0.149-0.312l9.901-7.154c3.252,0.257,11.132,1.427,13.796,4.539
		c0.375,0.438,0.635,0.896,0.789,1.38L13.389,13.298z"/>
</g>
<g>
</g>
<g>
</g>
<g>
</g>
<g>
</g>
<g>
</g>
<g>
</g>
<g>
</g>
<g>
</g>
<g>
</g>
<g>
</g>
<g>
</g>
<g>
</g>
<g>
</g>
<g>
</g>
<g>
</g>
</svg>
