<?xml version="1.0" encoding="iso-8859-1"?>
<!-- Generator: Adobe Illustrator 19.0.0, SVG Export Plug-In . SVG Version: 6.00 Build 0)  -->
<svg version="1.1" id="Capa_1" xmlns="http://www.w3.org/2000/svg" xmlns:xlink="http://www.w3.org/1999/xlink" x="0px" y="0px"
	 viewBox="0 0 512 512" style="enable-background:new 0 0 512 512;" xml:space="preserve">
<g>
	<g>
		<path d="M450.692,140.449l-6.716-4.358l-90.332,38.716c11.448,11.799,20.429,25.999,26.107,41.766l36.666-7.793l6.238,29.345
			l-36.486,7.755c0.288,3.336,0.444,6.71,0.444,10.12s-0.156,6.784-0.444,10.12l36.486,7.755l-6.238,29.345l-36.666-7.793
			c-5.678,15.767-14.66,29.967-26.107,41.766l90.332,38.716l6.716-4.358c2.503-1.625,61.308-40.649,61.308-115.55
			S453.195,142.074,450.692,140.449z"/>
	</g>
</g>
<g>
	<g>
		<path d="M95.583,303.221l-6.238-29.345l36.486-7.755c-0.288-3.336-0.444-6.71-0.444-10.12s0.156-6.784,0.444-10.12l-36.486-7.755
			l6.238-29.345l36.666,7.793c5.678-15.767,14.66-29.966,26.107-41.766L68.024,136.09l-6.716,4.358C58.805,142.074,0,181.099,0,256
			s58.805,113.925,61.308,115.55l6.716,4.358l90.332-38.716c-11.448-11.799-20.429-25.999-26.107-41.766L95.583,303.221z"/>
	</g>
</g>
<g>
	<g>
		<path d="M269.932,169.321h-27.864c-47.795,0-86.68,38.885-86.68,86.68c0,47.795,38.885,86.68,86.68,86.68h27.864
			c47.795,0,86.68-38.885,86.68-86.68C356.612,208.205,317.727,169.321,269.932,169.321z"/>
	</g>
</g>
<g>
</g>
<g>
</g>
<g>
</g>
<g>
</g>
<g>
</g>
<g>
</g>
<g>
</g>
<g>
</g>
<g>
</g>
<g>
</g>
<g>
</g>
<g>
</g>
<g>
</g>
<g>
</g>
<g>
</g>
</svg>
