<?xml version="1.0" encoding="iso-8859-1"?>
<!-- Generator: Adobe Illustrator 19.0.0, SVG Export Plug-In . SVG Version: 6.00 Build 0)  -->
<svg version="1.1" id="Capa_1" xmlns="http://www.w3.org/2000/svg" xmlns:xlink="http://www.w3.org/1999/xlink" x="0px" y="0px"
	 viewBox="0 0 512 512" style="enable-background:new 0 0 512 512;" xml:space="preserve">
<g>
	<g>
		<path d="M501.879,424.92v-31.673h-30v31.673H454.04L274.72,114.34l-0.001-0.002l0.004-0.002l-1.402-2.429l22.994-39.827l-25.98-15
			L256,81.907L241.666,57.08l-25.98,15l22.994,39.827l-1.402,2.429l0.004,0.002l-0.001,0.002L57.96,424.92H40.121v-31.673h-30
			v31.673H0v30h512v-30H501.879z M358.77,424.92L271,272.9v152.02h-30V272.9l-87.77,152.02h-34.64l137.41-238l137.41,238H358.77z"/>
	</g>
</g>
<g>
</g>
<g>
</g>
<g>
</g>
<g>
</g>
<g>
</g>
<g>
</g>
<g>
</g>
<g>
</g>
<g>
</g>
<g>
</g>
<g>
</g>
<g>
</g>
<g>
</g>
<g>
</g>
<g>
</g>
</svg>
