<?xml version="1.0" encoding="iso-8859-1"?>
<!-- Generator: Adobe Illustrator 19.0.0, SVG Export Plug-In . SVG Version: 6.00 Build 0)  -->
<svg version="1.1" id="Capa_1" xmlns="http://www.w3.org/2000/svg" xmlns:xlink="http://www.w3.org/1999/xlink" x="0px" y="0px"
	 viewBox="0 0 511.996 511.996" style="enable-background:new 0 0 511.996 511.996;" xml:space="preserve">
<g>
	<g>
		<path d="M270.993,166.155v-20.193c27.029-6.728,47.121-31.196,47.121-60.278c0-44.997-51.772-78.992-53.975-80.417L255.995,0
			l-8.144,5.266c-2.204,1.425-53.975,35.42-53.975,80.417c0,29.082,20.091,53.55,47.121,60.278v20.195H123.769v250.502h264.453
			V166.155H270.993z M316.987,354.119H195.003v-29.996h121.985V354.119z M316.987,306.405H195.003v-29.996h121.985V306.405z
			 M316.987,258.691H195.003v-29.996h121.985V258.691z"/>
	</g>
</g>
<g>
	<g>
		<rect x="30.011" y="446.654" width="451.973" height="65.342"/>
	</g>
</g>
<g>
</g>
<g>
</g>
<g>
</g>
<g>
</g>
<g>
</g>
<g>
</g>
<g>
</g>
<g>
</g>
<g>
</g>
<g>
</g>
<g>
</g>
<g>
</g>
<g>
</g>
<g>
</g>
<g>
</g>
</svg>
