<?xml version="1.0" encoding="utf-8"?>
<!-- Generator: Adobe Illustrator 21.0.2, SVG Export Plug-In . SVG Version: 6.00 Build 0)  -->
<svg version="1.1" id="Capa_1" xmlns="http://www.w3.org/2000/svg" xmlns:xlink="http://www.w3.org/1999/xlink" x="0px" y="0px"
	 viewBox="0 0 325 325" style="enable-background:new 0 0 325 325;" xml:space="preserve">
<path d="M274.7,169.9c2.3-2.8,6.9-6,10.3-7.1l28-11.4c3.2-1.6,5.8-5.9,5.8-9.4V62.1c0-3.6-2.7-7.6-6.1-8.8c0,0-58.5-22.3-97.8-22.3
	c-36.5,0-87,19.2-87,19.2c-3.3,1.3-9,2.7-12.6,3.1l-103,11.1C8.9,64.9,6,68.2,6,71.7v54.2c0,3.6,2.9,7.1,6.4,7.7l102.9,16.6
	c3.5,0.6,9.2,2.2,12.5,3.5l70.5,18c3.5,0.5,7.4,3.7,8.6,7.1l41.4,119.7c1.2,3.4,4.9,5.2,8.3,4.1l43.8-14.7c3.4-1.1,5.2-4.8,4-8.2
	l-28.8-83c-1.2-3.4-2.2-6.4-2.2-6.6l-0.1-0.2C270,175.7,274.7,169.9,274.7,169.9z M224.7,126.8c-16.4,0-29.6-13-29.6-29.1
	c0-16.1,13.2-29.1,29.6-29.1c16.3,0,29.6,13,29.6,29.1S241,126.8,224.7,126.8z"/>
</svg>
