<?xml version="1.0" encoding="iso-8859-1"?>
<!-- Generator: Adobe Illustrator 19.0.0, SVG Export Plug-In . SVG Version: 6.00 Build 0)  -->
<svg version="1.1" id="Capa_1" xmlns="http://www.w3.org/2000/svg" xmlns:xlink="http://www.w3.org/1999/xlink" x="0px" y="0px"
	 viewBox="0 0 512 512" style="enable-background:new 0 0 512 512;" xml:space="preserve">
<g>
	<g>
		<path d="M0,325.171v37.64c0,30.17,20.32,55.69,48,63.58v-164.8C20.32,269.481,0,295.001,0,325.171z"/>
	</g>
</g>
<g>
	<g>
		<path d="M467,262.521v162.94c26.13-8.83,45-33.57,45-62.65v-37.64C512,296.091,493.13,271.351,467,262.521z"/>
	</g>
</g>
<g>
	<g>
		<path d="M428.125,246.551L428.125,246.551v-7.246c0-94.442-76.834-171.276-171.276-171.276S85.572,144.863,85.572,239.305v7.246
			H78v197.42h62.61v-197.42h-25.038v-7.246c0-77.9,63.376-141.276,141.276-141.276s141.276,63.376,141.276,141.276v7.246H371.39
			v197.42H437v-197.42H428.125z"/>
	</g>
</g>
<g>
</g>
<g>
</g>
<g>
</g>
<g>
</g>
<g>
</g>
<g>
</g>
<g>
</g>
<g>
</g>
<g>
</g>
<g>
</g>
<g>
</g>
<g>
</g>
<g>
</g>
<g>
</g>
<g>
</g>
</svg>
