<?xml version="1.0" encoding="utf-8"?>
<!-- Generator: Adobe Illustrator 21.0.2, SVG Export Plug-In . SVG Version: 6.00 Build 0)  -->
<svg version="1.1" id="Capa_1" xmlns="http://www.w3.org/2000/svg" xmlns:xlink="http://www.w3.org/1999/xlink" x="0px" y="0px"
	 viewBox="0 0 325 325" style="enable-background:new 0 0 325 325;" xml:space="preserve">
<style type="text/css">
	.st0{enable-background:new    ;}
</style>
<g class="st0">
	<path d="M278,187.4l0.6,11.8c-0.8,32.1-11.8,58.9-33.1,80.2c-21.3,21.3-48,32.4-80.2,33.4H165c-32.1-0.8-58.9-11.9-80.3-33.3
		c-21.4-21.4-32.5-48.2-33.3-80.3c0-2.2,0-4.3,0-6.5c2.4-31.5,8.3-53,17.9-64.5c9.6-11.4,15.3-17.1,17.3-16.9
		c1.8-0.8,3.6-0.7,5.5,0.3c1.9,1,3,2.6,3.4,4.7c-0.2,1.6,1.9,8.3,6.2,20.1c4.3,11.8,12.8,19.9,25.4,24.3c0-8.5,0.4-18.4,1.2-29.9
		c0.8-11.4,2.6-22.9,5.3-34.3c4.3-16.2,11.7-31.9,22.2-47.2c10.4-15.3,22.8-28,37-38.3c2.2-1.4,4.4-1.5,6.7-0.3
		c2.3,1.2,3.4,3,3.4,5.3c0.2,14.6,3.4,27.5,9.5,38.7c6.1,11.2,13.6,22.6,22.5,34c9.7,12.2,18.7,26.1,27.2,41.6
		C270.5,145.9,275.8,164.9,278,187.4z M165,300.1c10.6-0.2,19.6-4.1,26.8-11.7c7.2-7.6,10.9-17.1,11.1-28.5l-0.3-3.3
		c-0.8-9.1-2.7-16.7-5.8-22.8c-3.1-6.1-6.5-11.7-10.2-16.9c-2.6-3.5-5-7.2-7.4-11.1s-4.2-8-5.6-12.6c-3.2,3.5-5.8,7.4-8,11.5
		c-2.2,4.1-3.7,8.4-4.7,12.7c-1.2,4.7-1.9,9.6-2.2,14.5c-0.3,4.9-0.4,9.7-0.4,14.2c0,1.8-0.6,3.3-1.8,4.4c-1.2,1.2-2.7,1.8-4.4,1.8
		c-5.3-0.2-9.7-1.7-13-4.6c-3.4-2.9-5.9-6.4-7.7-10.5c-2.2,4.1-3.5,10.8-4.1,20.1v2.4c0.2,11.4,3.9,21,11.1,28.5
		C145.4,296,154.4,299.9,165,300.1z"/>
</g>
</svg>
