<?xml version="1.0" encoding="iso-8859-1"?>
<!-- Generator: Adobe Illustrator 19.0.0, SVG Export Plug-In . SVG Version: 6.00 Build 0)  -->
<svg version="1.1" id="Capa_1" xmlns="http://www.w3.org/2000/svg" xmlns:xlink="http://www.w3.org/1999/xlink" x="0px" y="0px"
	 viewBox="0 0 512 512" style="enable-background:new 0 0 512 512;" xml:space="preserve">
<g>
	<g>
		<path d="M393.528,275.056h-90.361v-49.399h-34.555v-105c0-16.629,13.529-30.159,30.159-30.159s30.159,13.529,30.159,30.159v33.254
			c0,33.003,26.85,59.853,59.853,59.853s59.853-26.85,59.853-59.853V0h-30v153.912c0,16.461-13.392,29.853-29.853,29.853
			s-29.853-13.392-29.853-29.853v-33.254c0-33.171-26.987-60.159-60.159-60.159c-33.171,0-60.159,26.987-60.159,60.159v105h-34.555
			v49.399h-85.585C53.146,275.056,0,328.202,0,393.528S53.146,512,118.472,512c25.868,0,50.447-8.191,71.08-23.687
			c16.919-12.707,30.274-29.981,38.376-49.421h56.146c8.102,19.44,21.456,36.714,38.375,49.421
			C343.082,503.809,367.661,512,393.528,512C458.854,512,512,458.853,512,393.528S458.854,275.056,393.528,275.056z
			 M160.709,408.528L160.709,408.528h-29.205v29.204h-30v-29.204H72.301v-30h29.204v-29.204h30v29.204h29.204V408.528z
			 M222.513,383.018l-23.116-19.121l22.61-27.333l23.116,19.121L222.513,383.018z M281.615,383.019l-23.116-19.122l22.61-27.334
			l23.116,19.122L281.615,383.019z M372.597,407.861L372.597,407.861H343.93v-28.667h28.667V407.861z M406.333,441.599h-28.667
			v-28.667h28.667V441.599z M406.333,374.124h-28.667v-28.667h28.667V374.124z M440.07,407.861h-28.667v-28.667h28.667V407.861z"/>
	</g>
</g>
<g>
</g>
<g>
</g>
<g>
</g>
<g>
</g>
<g>
</g>
<g>
</g>
<g>
</g>
<g>
</g>
<g>
</g>
<g>
</g>
<g>
</g>
<g>
</g>
<g>
</g>
<g>
</g>
<g>
</g>
</svg>
