<?xml version="1.0" encoding="iso-8859-1"?>
<!-- Generator: Adobe Illustrator 19.0.0, SVG Export Plug-In . SVG Version: 6.00 Build 0)  -->
<svg version="1.1" id="Layer_1" xmlns="http://www.w3.org/2000/svg" xmlns:xlink="http://www.w3.org/1999/xlink" x="0px" y="0px"
	 viewBox="0 0 512.34 512.34" style="enable-background:new 0 0 512.34 512.34;" xml:space="preserve">
<g>
	<g>
		<g>
			<path d="M256.199,51.322c-56.554,0-102.4,45.846-102.4,102.4c0,56.554,45.846,102.4,102.4,102.4
				c56.554,0,102.4-45.846,102.4-102.4C358.599,97.168,312.753,51.322,256.199,51.322z M190.407,116.098
				c-2.736-3.195-2.736-7.906,0-11.101l17.067-17.067c3.58-3.065,8.967-2.649,12.032,0.931c2.736,3.195,2.736,7.906,0,11.101
				l-17.067,17.067C198.859,120.094,193.472,119.678,190.407,116.098z M253.639,108.496l-42.667,42.667
				c-3.58,3.065-8.967,2.649-12.032-0.931c-2.736-3.195-2.736-7.906,0-11.101l42.667-42.667c3.58-3.065,8.966-2.649,12.032,0.931
				C256.375,100.589,256.375,105.301,253.639,108.496z"/>
			<path d="M379.62,62.265c-6.206-8.38-13.249-16.107-21.021-23.06C325.94,9.79,282.182-4.111,238.535,1.061
				c-84.27,9.736-144.692,85.944-134.956,170.214c4.914,42.529,27.354,81.078,61.911,106.351
				c13.881,10.09,25.05,23.458,32.512,38.912c24.832,52.139,20.992,97.024,18.261,129.792c-2.048,23.979-3.584,42.667,7.339,54.784
				c8.771,8.196,20.653,12.209,32.597,11.008c11.932,1.224,23.812-2.757,32.597-10.923c11.008-11.947,9.387-30.891,7.339-54.784
				c-2.731-31.829-6.4-75.52,16.469-126.037c7.797-17.159,19.839-32.049,34.987-43.264
				C415.764,226.63,430.104,130.439,379.62,62.265z M256.199,273.189c-65.98,0-119.467-53.487-119.467-119.467
				S190.219,34.256,256.199,34.256s119.467,53.487,119.467,119.467S322.178,273.189,256.199,273.189z"/>
		</g>
	</g>
</g>
<g>
</g>
<g>
</g>
<g>
</g>
<g>
</g>
<g>
</g>
<g>
</g>
<g>
</g>
<g>
</g>
<g>
</g>
<g>
</g>
<g>
</g>
<g>
</g>
<g>
</g>
<g>
</g>
<g>
</g>
</svg>
