<?xml version="1.0" encoding="iso-8859-1"?>
<!-- Generator: Adobe Illustrator 19.0.0, SVG Export Plug-In . SVG Version: 6.00 Build 0)  -->
<svg version="1.1" id="Capa_1" xmlns="http://www.w3.org/2000/svg" xmlns:xlink="http://www.w3.org/1999/xlink" x="0px" y="0px"
	 viewBox="0 0 512 512" style="enable-background:new 0 0 512 512;" xml:space="preserve">
<g>
	<g>
		<polygon points="217.395,166.425 217.395,383.069 355.777,166.425 		"/>
	</g>
</g>
<g>
	<g>
		<polygon points="50.97,136.39 187.36,136.39 187.36,0 		"/>
	</g>
</g>
<g>
	<g>
		<polygon points="48.977,166.425 187.36,383.069 187.36,166.425 		"/>
	</g>
</g>
<g>
	<g>
		<polygon points="217.395,0 217.395,136.39 353.785,136.39 		"/>
	</g>
</g>
<g>
	<g>
		<path d="M332.54,395.764v28.634c0,31.737-25.83,57.567-57.577,57.567c-31.747,0-57.567-25.83-57.567-57.567v-37.464v-3.865
			l-2.473,3.865h-25.089l-2.473-3.865v3.865v37.464c0,48.307,39.296,87.603,87.603,87.603c48.307,0,87.613-39.296,87.613-87.603
			v-28.634c0-55.385,45.063-100.448,100.448-100.448v-30.035C391.068,265.281,332.54,323.819,332.54,395.764z"/>
	</g>
</g>
<g>
</g>
<g>
</g>
<g>
</g>
<g>
</g>
<g>
</g>
<g>
</g>
<g>
</g>
<g>
</g>
<g>
</g>
<g>
</g>
<g>
</g>
<g>
</g>
<g>
</g>
<g>
</g>
<g>
</g>
</svg>
