<?xml version="1.0" encoding="iso-8859-1"?>
<!-- Generator: Adobe Illustrator 19.0.0, SVG Export Plug-In . SVG Version: 6.00 Build 0)  -->
<svg version="1.1" id="Capa_1" xmlns="http://www.w3.org/2000/svg" xmlns:xlink="http://www.w3.org/1999/xlink" x="0px" y="0px"
	 viewBox="0 0 512 512" style="enable-background:new 0 0 512 512;" xml:space="preserve">
<g>
	<g>
		<path d="M452.668,217.531L294.474,59.337L283.8,48.663c-0.03,0.04-0.07,0.09-0.1,0.13c-0.45,0.57-0.899,1.139-1.329,1.719
			c-0.2,0.25-0.39,0.5-0.57,0.75c-0.2,0.26-0.4,0.52-0.59,0.79c-0.17,0.22-0.33,0.45-0.5,0.68c-0.03,0.04-0.05,0.07-0.08,0.11
			c-0.989,1.359-1.949,2.739-2.878,4.128c-0.22,0.32-0.43,0.65-0.64,0.969c-0.4,0.61-0.79,1.219-1.169,1.829
			c-0.16,0.25-0.32,0.49-0.47,0.74c-0.49,0.78-0.959,1.569-1.429,2.369c-0.46,0.78-0.91,1.559-1.359,2.349
			c-0.19,0.33-0.37,0.66-0.55,1c-0.25,0.44-0.49,0.879-0.72,1.329c-0.24,0.42-0.46,0.85-0.68,1.279
			c-0.41,0.78-0.8,1.559-1.189,2.349c-0.32,0.64-0.63,1.289-0.94,1.939c-0.05,0.12-0.11,0.23-0.16,0.35
			c-0.32,0.66-0.62,1.329-0.919,1.999c-0.29,0.64-0.57,1.279-0.85,1.929c-0.01,0.02-0.02,0.05-0.03,0.07
			c-0.32,0.75-0.64,1.499-0.94,2.259c-0.37,0.89-0.72,1.789-1.059,2.689c-0.06,0.15-0.11,0.29-0.16,0.43
			c-0.25,0.66-0.49,1.309-0.72,1.979c-0.04,0.11-0.07,0.21-0.11,0.32c-0.1,0.25-0.19,0.51-0.27,0.76c-0.01,0.03-0.02,0.07-0.04,0.1
			c-0.28,0.82-0.56,1.649-0.83,2.479c-0.31,0.979-0.62,1.969-0.909,2.948c-0.01,0.01-0.01,0.02-0.01,0.03
			c-0.29,0.979-0.57,1.969-0.83,2.948c-0.27,0.989-0.53,1.989-0.77,2.988c-0.22,0.88-0.42,1.769-0.62,2.649
			c-0.06,0.26-0.12,0.52-0.17,0.78c-0.16,0.73-0.31,1.469-0.45,2.199c-0.04,0.2-0.08,0.4-0.12,0.6c-0.11,0.59-0.22,1.189-0.32,1.779
			c-0.01,0.04-0.01,0.07-0.02,0.11c-0.08,0.4-0.15,0.79-0.21,1.199c-0.01,0.05-0.02,0.11-0.03,0.16c0,0,0,0.01,0,0.02
			c-0.14,0.859-0.28,1.729-0.4,2.589c-0.1,0.7-0.2,1.389-0.28,2.089c-0.03,0.17-0.05,0.35-0.07,0.53c-0.04,0.25-0.06,0.49-0.09,0.74
			c-0.03,0.24-0.05,0.49-0.08,0.74c-0.08,0.66-0.15,1.319-0.21,1.979c0,0.01,0,0.01,0,0.02c-0.01,0.01-0.01,0.03,0,0.04
			c0,0.01,0,0.01,0,0.01c-0.01,0.09-0.02,0.19-0.03,0.28c-0.08,0.78-0.14,1.549-0.2,2.329c-0.02,0.26-0.04,0.51-0.05,0.77
			c0,0.06-0.01,0.11-0.01,0.17c-0.06,0.72-0.1,1.439-0.13,2.149c-0.02,0.21-0.03,0.42-0.03,0.63c-0.04,0.74-0.07,1.479-0.08,2.219
			c-0.01,0.29-0.02,0.57-0.02,0.86c-0.03,0.93-0.04,1.859-0.04,2.788c0,0.01,0,0.01,0,0.02c0,0.889,0.01,1.789,0.04,2.679v0.24
			c0,0.17,0,0.33,0.01,0.51c0.02,0.899,0.05,1.799,0.1,2.698c0.04,0.82,0.08,1.639,0.14,2.459c0.01,0.24,0.03,0.48,0.05,0.72
			c0.13,1.819,0.3,3.638,0.51,5.447c0.03,0.23,0.05,0.46,0.08,0.69c0.12,0.969,0.25,1.939,0.39,2.898
			c0.1,0.74,0.22,1.489,0.34,2.229c0.01,0.1,0.03,0.2,0.05,0.3c0,0.02,0.01,0.04,0.01,0.06c0.07,0.4,0.13,0.8,0.21,1.199
			c0.03,0.17,0.06,0.34,0.09,0.51c0.07,0.45,0.15,0.89,0.24,1.339c0.06,0.3,0.12,0.61,0.18,0.909c0.12,0.63,0.25,1.269,0.39,1.899
			c0.04,0.19,0.08,0.38,0.11,0.57h0.01c0,0.02,0.01,0.05,0.01,0.07c0.03,0.14,0.06,0.28,0.1,0.42c0.03,0.13,0.06,0.27,0.09,0.41
			l0.01,0.01c0.18,0.79,0.36,1.579,0.55,2.369c0.23,0.93,0.47,1.859,0.72,2.779c0.22,0.83,0.45,1.659,0.7,2.489
			c0.03,0.09,0.05,0.18,0.08,0.27c0.25,0.87,0.52,1.739,0.799,2.609c0.19,0.59,0.38,1.179,0.58,1.769
			c0.39,1.169,0.799,2.339,1.229,3.508c0.21,0.58,0.43,1.169,0.65,1.749c0.22,0.58,0.45,1.159,0.68,1.729
			c0.23,0.58,0.47,1.159,0.71,1.729c0.48,1.149,0.969,2.299,1.489,3.438c0.52,1.139,1.049,2.269,1.599,3.398
			c0.27,0.56,0.55,1.119,0.84,1.679c0.56,1.119,1.149,2.239,1.749,3.338c0.3,0.55,0.61,1.109,0.919,1.659
			c0.7,1.259,1.439,2.509,2.199,3.738c0.56,0.93,1.139,1.849,1.729,2.758c0.34,0.54,0.69,1.069,1.049,1.599
			c0.03,0.05,0.07,0.1,0.1,0.15c0.36,0.54,0.72,1.079,1.109,1.619c0.1,0.15,0.2,0.3,0.31,0.45c0.43,0.63,0.88,1.259,1.339,1.879
			c0.32,0.44,0.65,0.89,0.969,1.329c0.02,0.02,0.03,0.03,0.04,0.05c0.34,0.47,0.69,0.93,1.049,1.389c0.01,0.01,0.01,0.01,0.01,0.02
			c0.65,0.84,1.309,1.679,1.979,2.499c0,0.01,0.01,0.02,0.02,0.03c0.24,0.31,0.49,0.61,0.74,0.909
			c0.55,0.66,1.099,1.319,1.659,1.969c0.63,0.74,1.269,1.469,1.919,2.189c0.23,0.25,0.45,0.5,0.68,0.75
			c0.59,0.64,1.179,1.279,1.789,1.919c0.75,0.79,1.519,1.579,2.299,2.359c1.559,1.559,3.148,3.068,4.767,4.537
			c1.619,1.459,3.268,2.878,4.937,4.238c0.6,0.49,1.209,0.969,1.819,1.449c0.07,0.05,0.13,0.1,0.2,0.15
			c0.31,0.25,0.63,0.5,0.95,0.74c0.57,0.45,1.149,0.88,1.729,1.309c0.02,0.02,0.05,0.03,0.07,0.05c0.3,0.22,0.6,0.44,0.899,0.66
			c0.09,0.07,0.19,0.13,0.28,0.2c0.08,0.06,0.16,0.11,0.24,0.17c0.51,0.37,1.019,0.74,1.539,1.089c0.09,0.07,0.19,0.13,0.28,0.2
			c0.78,0.54,1.559,1.069,2.339,1.589c0.89,0.58,1.779,1.159,2.679,1.719c1.789,1.129,3.608,2.199,5.447,3.218
			c0.92,0.51,1.839,1.009,2.768,1.499c1.849,0.979,3.728,1.909,5.617,2.779c0.95,0.44,1.899,0.859,2.848,1.279
			c0.91,0.4,1.819,0.78,2.739,1.149c0.919,0.37,1.839,0.73,2.768,1.079c1.059,0.41,2.119,0.8,3.188,1.169
			c0.969,0.34,1.949,0.67,2.938,0.99c0.16,0.06,0.33,0.11,0.49,0.16c0.25,0.08,0.5,0.16,0.75,0.23c0.57,0.18,1.139,0.35,1.709,0.52
			c0.989,0.29,1.989,0.57,2.978,0.84c0.989,0.27,1.989,0.53,2.988,0.77c0.88,0.22,1.759,0.42,2.639,0.62
			c0.28,0.06,0.57,0.12,0.85,0.18c0.02,0.01,0.05,0.01,0.07,0.02c0.23,0.05,0.45,0.09,0.68,0.14c0,0,0.01,0.01,0.02,0.01
			c0.12,0.03,0.24,0.06,0.36,0.07c0.13,0.04,0.26,0.06,0.39,0.08c0.09,0.01,0.17,0.03,0.25,0.05c0.08,0.02,0.16,0.03,0.25,0.04
			c0.45,0.1,0.909,0.19,1.359,0.26c0.14,0.03,0.27,0.06,0.41,0.08c0.44,0.09,0.89,0.17,1.329,0.24c0.08,0.01,0.15,0.03,0.23,0.04
			c0.19,0.04,0.38,0.07,0.57,0.1c0.89,0.15,1.789,0.28,2.679,0.41c0.82,0.12,1.649,0.23,2.479,0.33l0.21,0.03
			c0.31,0.04,0.62,0.08,0.929,0.11c0.11,0.02,0.22,0.03,0.34,0.04c0.71,0.08,1.429,0.16,2.139,0.22c1.019,0.1,2.039,0.19,3.058,0.26
			c0.77,0.06,1.529,0.1,2.299,0.14c0.48,0.03,0.959,0.05,1.439,0.07h0.1c0.57,0.02,1.129,0.05,1.699,0.06
			c0.38,0.01,0.76,0.03,1.149,0.03c0.3,0.01,0.61,0.01,0.909,0.02h0.23c0.45,0,0.909,0.02,1.369,0.02c0.64,0,1.289-0.01,1.929-0.02
			c0.34-0.01,0.68-0.01,1.019-0.02c0.05,0,0.09,0,0.14-0.01h0.04c0.82-0.02,1.639-0.05,2.469-0.09c0.16-0.01,0.32-0.01,0.48-0.02
			c0.12,0,0.25-0.01,0.38-0.01c0.04,0,0.07,0,0.11-0.01c0.17,0,0.34-0.01,0.5-0.03c0.59-0.03,1.169-0.07,1.759-0.11
			c0.35-0.02,0.7-0.05,1.039-0.07c0.74-0.06,1.479-0.12,2.219-0.19c1.069-0.1,2.149-0.21,3.218-0.34
			c2.029-0.24,4.058-0.53,6.087-0.88c0.979-0.17,1.959-0.35,2.938-0.53c0.03,0,0.06-0.01,0.09-0.02c0.78-0.15,1.569-0.31,2.349-0.48
			c0.18-0.04,0.37-0.08,0.55-0.12c0.07-0.01,0.14-0.02,0.21-0.04c1.979-0.43,3.938-0.909,5.897-1.449
			c0.989-0.27,1.989-0.55,2.978-0.84c0.74-0.22,1.479-0.45,2.219-0.68c0.33-0.1,0.65-0.2,0.979-0.31
			c0.72-0.23,1.429-0.47,2.139-0.72c0.53-0.17,1.039-0.36,1.559-0.55c0.64-0.23,1.279-0.46,1.909-0.7
			c0.969-0.37,1.939-0.75,2.898-1.139s1.919-0.79,2.878-1.199c0.95-0.42,1.899-0.84,2.848-1.279c1.889-0.88,3.768-1.809,5.617-2.778
			c0.929-0.49,1.849-0.99,2.768-1.499c1.839-1.029,3.658-2.099,5.447-3.218c0.9-0.56,1.789-1.139,2.679-1.719
			c0.78-0.52,1.559-1.049,2.339-1.589c0.09-0.07,0.19-0.13,0.28-0.2c0.52-0.35,1.029-0.72,1.539-1.089c0.05-0.03,0.09-0.07,0.14-0.1
			c0.04-0.03,0.07-0.05,0.11-0.08c0.68-0.49,1.369-0.999,2.039-1.509c0.05-0.02,0.09-0.06,0.13-0.09c0.36-0.27,0.72-0.54,1.069-0.82
			c0.36-0.28,0.72-0.56,1.069-0.84c0.04-0.02,0.07-0.05,0.11-0.08L452.668,217.531z"/>
	</g>
</g>
<g>
	<g>
		<path d="M511.865,122.053c-0.02-0.64-0.05-1.279-0.1-1.919c-0.07-1.279-0.16-2.559-0.28-3.828c-0.11-1.279-0.25-2.549-0.4-3.818
			c-0.13-1.009-0.26-2.029-0.41-3.038c-1.349-9.345-3.728-18.56-7.146-27.465c-0.5-1.329-1.039-2.659-1.599-3.968
			c-6.227-14.752-15.352-28.564-27.365-40.578c-0.65-0.65-1.309-1.289-1.969-1.919c-0.07-0.07-0.15-0.14-0.22-0.21
			c-0.3-0.29-0.6-0.57-0.9-0.84c-0.33-0.32-0.65-0.63-0.979-0.919c-0.31-0.29-0.63-0.58-0.94-0.859c-0.02-0.02-0.03-0.03-0.05-0.04
			c-0.71-0.65-1.439-1.279-2.159-1.899c0,0,0-0.01-0.01-0.01c-0.68-0.58-1.359-1.149-2.039-1.709c-0.06-0.05-0.11-0.09-0.17-0.14
			c-0.27-0.23-0.53-0.44-0.81-0.66c-0.42-0.35-0.85-0.69-1.289-1.029c-0.08-0.06-0.17-0.13-0.25-0.2
			c-0.37-0.28-0.73-0.56-1.099-0.84c-0.52-0.4-1.039-0.8-1.569-1.189c-0.34-0.25-0.69-0.5-1.039-0.75
			c-0.04-0.03-0.07-0.05-0.11-0.08c-0.58-0.43-1.159-0.84-1.749-1.249c-0.07-0.05-0.14-0.1-0.21-0.14
			c-0.06-0.04-0.12-0.09-0.18-0.12c-0.57-0.41-1.149-0.8-1.729-1.189c-0.29-0.2-0.58-0.39-0.87-0.58
			c-0.79-0.52-1.589-1.029-2.389-1.529c-1.699-1.069-3.418-2.089-5.167-3.058l-0.75-0.42c-0.76-0.42-1.529-0.83-2.299-1.239
			c-1.849-0.969-3.718-1.899-5.607-2.778h-0.01c-0.949-0.44-1.899-0.86-2.848-1.279c-1.909-0.83-3.838-1.609-5.777-2.339
			c-1.939-0.74-3.888-1.419-5.857-2.049c-0.969-0.31-1.949-0.61-2.928-0.91c0,0-0.01-0.01-0.02,0c-0.99-0.29-1.989-0.57-2.978-0.84
			c-0.95-0.26-1.899-0.5-2.848-0.73c-0.09-0.03-0.19-0.06-0.28-0.07c-0.949-0.24-1.909-0.46-2.858-0.67
			c-1.009-0.22-2.009-0.42-3.018-0.62c-1.009-0.19-2.019-0.38-3.028-0.55c-1.009-0.17-2.029-0.33-3.038-0.47
			c-0.81-0.12-1.619-0.23-2.429-0.33c-0.07-0.01-0.13-0.01-0.2-0.02c-0.32-0.04-0.65-0.08-0.969-0.12
			c-0.06-0.01-0.13-0.01-0.19-0.02c-0.64-0.07-1.279-0.14-1.919-0.2c-0.25-0.03-0.5-0.05-0.75-0.07
			c-0.66-0.07-1.309-0.13-1.969-0.17c-0.66-0.05-1.309-0.1-1.959-0.13c-0.28-0.03-0.55-0.04-0.83-0.05
			c-0.43-0.03-0.87-0.05-1.299-0.07h-0.1c-0.89-0.05-1.779-0.08-2.659-0.1c0,0-0.01,0-0.02,0c-0.01,0-0.01,0-0.02,0
			C386.204,0.01,385.185,0,384.175,0c-1.019,0-2.039,0.01-3.058,0.04c-0.01,0-0.02,0-0.02,0c-0.919,0.02-1.839,0.05-2.758,0.1
			c-1.119,0.04-2.239,0.11-3.358,0.19c-0.93,0.07-1.859,0.14-2.788,0.24c-0.2,0.01-0.41,0.03-0.61,0.06
			c-0.67,0.05-1.339,0.13-1.999,0.21c-0.42,0.04-0.85,0.09-1.269,0.14c-1.639,0.21-3.288,0.44-4.917,0.72
			c-0.52,0.08-1.049,0.17-1.569,0.26c-0.44,0.08-0.87,0.16-1.309,0.24c-0.38,0.07-0.76,0.14-1.139,0.22
			c-0.41,0.08-0.82,0.16-1.229,0.25c-0.899,0.18-1.809,0.38-2.708,0.59c-0.52,0.12-1.039,0.24-1.559,0.37
			c-0.09,0.02-0.18,0.04-0.28,0.07c-0.949,0.23-1.899,0.47-2.848,0.73c-0.989,0.27-1.989,0.55-2.978,0.84
			c-0.989,0.3-1.969,0.6-2.958,0.919c-0.979,0.31-1.949,0.64-2.928,0.979c-1.959,0.68-3.898,1.419-5.817,2.199
			c-0.72,0.29-1.439,0.59-2.159,0.899c-0.36,0.15-0.72,0.3-1.069,0.46c-0.36,0.16-0.71,0.32-1.069,0.48
			c-0.63,0.28-1.249,0.56-1.879,0.859c-0.05,0.02-0.11,0.04-0.16,0.07c-0.74,0.35-1.469,0.71-2.209,1.069
			c-1.879,0.919-3.728,1.899-5.567,2.918c-0.85,0.48-1.699,0.959-2.539,1.459c-0.16,0.09-0.32,0.19-0.48,0.29
			c-0.01,0.01-0.02,0.01-0.03,0.02c-0.64,0.37-1.269,0.75-1.889,1.139c-0.02,0.01-0.05,0.03-0.07,0.04c-0.32,0.2-0.64,0.4-0.959,0.6
			c-0.72,0.46-1.439,0.919-2.159,1.389c-0.78,0.52-1.559,1.049-2.339,1.589c-0.09,0.07-0.19,0.13-0.28,0.2
			c-0.52,0.35-1.029,0.72-1.539,1.089c-0.07,0.05-0.13,0.1-0.2,0.15c-0.35,0.24-0.69,0.49-1.029,0.74
			c-0.34,0.25-0.68,0.51-1.019,0.77c-0.43,0.31-0.85,0.63-1.269,0.959c-0.38,0.3-0.77,0.6-1.149,0.909l10.674,10.674
			l158.173,158.173l10.684,10.684c0.57-0.72,1.139-1.449,1.689-2.179c0.56-0.74,1.099-1.479,1.639-2.219
			c0.53-0.74,1.059-1.489,1.579-2.239c1.049-1.499,2.049-3.008,3.008-4.548c0.48-0.77,0.95-1.539,1.419-2.319
			c0.36-0.6,0.72-1.209,1.069-1.819c0.1-0.17,0.2-0.34,0.3-0.51c0,0,0,0,0-0.01c0.44-0.78,0.88-1.569,1.309-2.359
			s0.85-1.579,1.259-2.379c0.42-0.8,0.82-1.599,1.209-2.399c0.27-0.54,0.53-1.079,0.78-1.619c0.13-0.26,0.25-0.53,0.38-0.8
			c0.37-0.81,0.74-1.629,1.099-2.439c0.33-0.77,0.66-1.549,0.979-2.319c0.03-0.07,0.06-0.13,0.09-0.2
			c0.22-0.55,0.44-1.099,0.66-1.649c0.16-0.39,0.31-0.77,0.46-1.169c0-0.01,0.01-0.02,0.01-0.03c0.27-0.68,0.52-1.369,0.77-2.059
			c0.15-0.38,0.29-0.77,0.42-1.159c0.14-0.38,0.27-0.76,0.4-1.149c0.08-0.23,0.16-0.46,0.23-0.69c0.24-0.68,0.46-1.349,0.67-2.019
			c0.54-1.689,1.039-3.378,1.499-5.077c0.11-0.4,0.22-0.79,0.31-1.179c0.02-0.09,0.05-0.17,0.07-0.26
			c0.15-0.54,0.29-1.079,0.42-1.619c0-0.02,0.01-0.03,0.01-0.05c0.18-0.72,0.35-1.429,0.51-2.149c0.16-0.67,0.3-1.339,0.44-2.009
			c0.09-0.42,0.18-0.85,0.26-1.269c0.09-0.44,0.18-0.88,0.27-1.329c0.08-0.42,0.16-0.85,0.23-1.279c0.02-0.09,0.03-0.17,0.04-0.26
			c0.1-0.49,0.18-0.989,0.26-1.479c0.01-0.05,0.02-0.09,0.02-0.14c0.14-0.81,0.27-1.629,0.38-2.439c0.07-0.49,0.14-0.979,0.2-1.469
			c0.06-0.39,0.11-0.78,0.15-1.169c0.04-0.28,0.07-0.56,0.1-0.84c0.04-0.28,0.06-0.57,0.09-0.85c0.01-0.07,0.02-0.14,0.03-0.21
			c0.05-0.41,0.09-0.82,0.12-1.229c0.01-0.06,0.02-0.11,0.02-0.17c0.02-0.16,0.04-0.32,0.05-0.48c0.07-0.74,0.14-1.479,0.19-2.219
			c0.03-0.33,0.05-0.66,0.07-0.99c0.05-0.7,0.09-1.399,0.12-2.109c0.02-0.27,0.04-0.54,0.04-0.81c0-0.04,0.01-0.09,0.01-0.13
			c0.03-0.54,0.05-1.079,0.05-1.619c0.01-0.09,0.01-0.19,0.01-0.28c0.02-0.63,0.04-1.269,0.04-1.909v-0.08
			c0.02-0.6,0.02-1.209,0.02-1.819C511.995,125.881,511.955,123.972,511.865,122.053z"/>
	</g>
</g>
<g>
	<g>
		<polygon points="51.268,377.713 17.636,418.9 44.661,446.135 44.665,446.139 0.005,490.799 21.206,512 65.777,467.429 
			65.78,467.433 92.675,494.539 134.202,460.647 		"/>
	</g>
</g>
<g>
	<g>
		<path d="M334.642,277.708c-3.308-1.099-6.596-2.299-9.845-3.618c-2.079-0.84-4.138-1.729-6.177-2.659
			c-17.121-7.806-32.582-18.55-46.045-32.002c-13.473-13.473-24.227-28.964-32.032-46.105c-0.919-2.019-1.789-4.058-2.629-6.117
			c-1.329-3.268-2.539-6.576-3.638-9.915c-1.939-5.877-3.528-11.844-4.757-17.88L70.327,354.365l87.222,87.222l194.963-159.123
			C346.476,281.236,340.509,279.646,334.642,277.708z M228.121,305.083l-21.198-21.198l27.505-27.515l21.208,21.208L228.121,305.083
			z"/>
	</g>
</g>
<g>
</g>
<g>
</g>
<g>
</g>
<g>
</g>
<g>
</g>
<g>
</g>
<g>
</g>
<g>
</g>
<g>
</g>
<g>
</g>
<g>
</g>
<g>
</g>
<g>
</g>
<g>
</g>
<g>
</g>
</svg>
