<?xml version="1.0" encoding="utf-8"?>
<!-- Generator: Adobe Illustrator 21.0.2, SVG Export Plug-In . SVG Version: 6.00 Build 0)  -->
<svg version="1.1" id="Layer_1" xmlns="http://www.w3.org/2000/svg" xmlns:xlink="http://www.w3.org/1999/xlink" x="0px" y="0px"
	 viewBox="0 0 172 94" style="enable-background:new 0 0 172 94;" xml:space="preserve">
<path d="M58.4,89.6l7.2-7.1c8.6-7.1,7.5-17.1,7.6-18.2c0.1-1,0.1-5.2-0.2-6.6c-0.3-1.4,0.1-2.9,0.1-2.9c-2.5-10.4-10.8-7.5-10.8-7.5
	c-3.3,0.3-3.5-2.9-3.5-2.9c-2.3-1.2-1.7-3.6-1.7-3.6l4.1-4.3c1.6-4.3,6.2-5.3,6.2-5.3c-0.7-4.3,1.5-6.9,1.5-6.9
	c0.3,1.3,5.2,6.4,5.6,6.5c5.7,1.4,3.8,2.3,7.4,4.9c3.6,2.5,11.2,5.7,14.6,3.8c3.3-1.9,31.2-4.3,43.2-4.3c3.6,0,6.3,0.7,8.5,1.8
	c2-1.5,4.5-4.8,6.4-9.2c2.8-6.5,3.2-13.1,1-17.5c-1.1-2.4-2.4-3.8-3.9-4c-2.1-0.4-4.8,1.4-5.5,2.1c-1.4,1.3-3.6,1.2-4.9-0.2
	c-1.3-1.4-1.2-3.6,0.2-5c0.6-0.5,5.6-5,11.6-3.8c3.7,0.7,6.7,3.4,8.9,7.9c3,6.3,2.7,14.8-0.9,23.3c-1.6,3.8-4.2,8.1-7.3,11
	c0.8,1.2,1.2,2,1.2,2c1,2.4,3.9,7.9,2.9,12.8s2.1,7.3,2.7,7.9c0.6,0.6,6.6,4.2,6.6,4.2l5,17.6c0.8,3.4-3.7,5.3-3.7,5.3
	c-1.6-0.2-1.7-5.5-1.7-5.5l-3.9-9.3l-14.8-5.4c0,0,0,6.2,0.2,7.4s0.8,3.1,0.8,3.1c-0.6,4-10.5,13.4-10.5,13.4h-7.5v-2.4
	c0.6-2.7,4.4-1.4,4.4-1.4l5.6-8.4c-5.9-4.6-8.3-12.4-8.3-12.4c-2.8,2.3-16.1-2-16.1-2l-8,0.8l2.3,18.6c0.7,4.5-0.3,6.1-0.3,6.1h-3.6
	c-2.5,0-4.3,0.3-4.3-2.3c0-2.7,3.6-2.2,3.6-2.2l-8.8-17.3c-8.3-5.1-13.6,2.3-13.6,2.3l-0.5,2.7c-3.2,4.7-21,16.9-21,16.9h-8.8v-2.7
	C54.8,88.5,58.4,89.6,58.4,89.6z"/>
</svg>
