<?xml version="1.0" encoding="iso-8859-1"?>
<!-- Generator: Adobe Illustrator 19.0.0, SVG Export Plug-In . SVG Version: 6.00 Build 0)  -->
<svg version="1.1" id="Layer_1" xmlns="http://www.w3.org/2000/svg" xmlns:xlink="http://www.w3.org/1999/xlink" x="0px" y="0px"
	 viewBox="0 0 511.879 511.879" style="enable-background:new 0 0 511.879 511.879;" xml:space="preserve">
<g>
	<g>
		<path d="M379.539,253.079c-18.8-24-36.8-47.2-44.8-75.2c-1.6-5.6-3.2-10.8-4.4-16c-12-43.2-22.4-78-66.4-81.6v-20.4
			c12-2,22.4-8,31.2-16.4c10.4-10.4,16.4-24,17.2-38.8c0-1.2-0.4-2.4-1.2-3.2c-0.8-0.8-2-1.2-3.2-1.2c-14.8,0.8-28.4,6.8-38.8,17.2
			c-2,2-4,4.4-5.6,6.8c-1.6-12-9.2-21.2-20.4-24c-4.4-1.2-8.8,1.6-9.6,6c-1.2,4.4,1.6,8.8,6,9.6c8,2,8.8,9.6,8.8,12.8v51.6
			c-44.4,3.6-54.8,38.4-66.8,81.6c-1.6,5.2-2.8,10.4-4.4,16c-8.4,28-26,50.8-44.8,75.2c-26,33.6-53.2,68-53.2,118
			c0,85.6,69.2,140.8,176,140.8c0.4,0,0.4,0,0.8,0c0.4,0,0.4,0,0.8,0c107.2,0,176-55.2,176-140.8
			C432.739,321.079,405.539,286.679,379.539,253.079z"/>
	</g>
</g>
<g>
</g>
<g>
</g>
<g>
</g>
<g>
</g>
<g>
</g>
<g>
</g>
<g>
</g>
<g>
</g>
<g>
</g>
<g>
</g>
<g>
</g>
<g>
</g>
<g>
</g>
<g>
</g>
<g>
</g>
</svg>
