<?xml version="1.0" encoding="iso-8859-1"?>
<!-- Generator: Adobe Illustrator 18.1.1, SVG Export Plug-In . SVG Version: 6.00 Build 0)  -->
<svg version="1.1" id="Capa_1" xmlns="http://www.w3.org/2000/svg" xmlns:xlink="http://www.w3.org/1999/xlink" x="0px" y="0px"
	 viewBox="0 0 30.722 30.722" style="enable-background:new 0 0 30.722 30.722;" xml:space="preserve">
<g>
	<g id="Capa_1_254_">
	</g>
	<g>
		<path d="M15.361,26.119L15.361,26.119c2.61-0.003,5.267-0.367,7.894-1.141c1.271-0.373,2.474-0.856,3.639-1.383L15.361,0.001V0
			l0,0l0,0L3.829,23.595c1.165,0.526,2.367,1.01,3.638,1.383C10.096,25.752,12.748,26.116,15.361,26.119z M19.362,17.42
			c1.015,0,1.836,0.824,1.836,1.836c0,1.015-0.822,1.837-1.836,1.837s-1.838-0.823-1.838-1.837
			C17.524,18.243,18.347,17.42,19.362,17.42z M16.189,8.223c0.737,0,1.335,0.599,1.335,1.334c0,0.738-0.598,1.336-1.335,1.336
			s-1.336-0.599-1.336-1.336C14.853,8.822,15.452,8.223,16.189,8.223z M13.063,13.383c1.727,0,3.126,1.399,3.126,3.127
			c0,1.724-1.399,3.124-3.126,3.124c-1.728,0-3.127-1.397-3.127-3.124C9.938,14.782,11.337,13.383,13.063,13.383z"/>
		<path d="M27.527,24.699C27.527,24.699,27.527,24.701,27.527,24.699c-0.32,0.188-5.03,2.837-12.166,2.852
			c-7.138-0.016-11.847-2.664-12.166-2.85l-0.001-0.002l-1.709,2.71c0.356,0.207,5.751,3.287,13.876,3.313l0,0
			c8.124-0.024,13.519-3.105,13.875-3.313L27.527,24.699z"/>
	</g>
</g>
<g>
</g>
<g>
</g>
<g>
</g>
<g>
</g>
<g>
</g>
<g>
</g>
<g>
</g>
<g>
</g>
<g>
</g>
<g>
</g>
<g>
</g>
<g>
</g>
<g>
</g>
<g>
</g>
<g>
</g>
</svg>
