<?xml version="1.0" encoding="iso-8859-1"?>
<!-- Generator: Adobe Illustrator 19.0.0, SVG Export Plug-In . SVG Version: 6.00 Build 0)  -->
<svg version="1.1" id="Capa_1" xmlns="http://www.w3.org/2000/svg" xmlns:xlink="http://www.w3.org/1999/xlink" x="0px" y="0px"
	 viewBox="0 0 512 512" style="enable-background:new 0 0 512 512;" xml:space="preserve">
<g>
	<g>
		<path d="M391.56,224.474c-25.108,0-45.535,20.427-45.535,45.536s20.427,45.536,45.535,45.536
			c25.108,0,45.535-20.427,45.535-45.536S416.669,224.474,391.56,224.474z"/>
	</g>
</g>
<g>
	<g>
		<path d="M120.439,224.474c-25.108,0-45.535,20.427-45.535,45.536s20.427,45.536,45.535,45.536
			c25.108,0,45.535-20.427,45.535-45.536S145.548,224.474,120.439,224.474z"/>
	</g>
</g>
<g>
	<g>
		<path d="M335,139.894V85H177v54.894H0v260.232h55V427h30v-26.875h342V427h30v-26.875h55V139.894H335z M120.439,345.545
			c-41.65,0-75.535-33.885-75.535-75.536s33.885-75.536,75.535-75.536c41.65,0,75.535,33.885,75.535,75.536
			C195.974,311.66,162.09,345.545,120.439,345.545z M271,323.646h-30v-30h30V323.646z M271,246.374h-30v-30h30V246.374z
			 M305,139.894h-98V115h98V139.894z M391.56,345.545c-41.65,0-75.535-33.885-75.535-75.536s33.885-75.536,75.535-75.536
			c41.65,0,75.535,33.885,75.535,75.536C467.095,311.66,433.211,345.545,391.56,345.545z"/>
	</g>
</g>
<g>
</g>
<g>
</g>
<g>
</g>
<g>
</g>
<g>
</g>
<g>
</g>
<g>
</g>
<g>
</g>
<g>
</g>
<g>
</g>
<g>
</g>
<g>
</g>
<g>
</g>
<g>
</g>
<g>
</g>
</svg>
