<?xml version="1.0" encoding="iso-8859-1"?>
<!-- Generator: Adobe Illustrator 19.0.0, SVG Export Plug-In . SVG Version: 6.00 Build 0)  -->
<svg version="1.1" id="Capa_1" xmlns="http://www.w3.org/2000/svg" xmlns:xlink="http://www.w3.org/1999/xlink" x="0px" y="0px"
	 viewBox="0 0 512 512" style="enable-background:new 0 0 512 512;" xml:space="preserve">
<g>
	<g>
		<path d="M482,63.371v59.667h-29.667v-21.333H399V42.038h-30v59.667H150.674L111,94.558V63h11.666V33H69.334v30H81v26.154L49,83.39
			v229.648h32v49h30v-49h28.314l16.581-58.032c2.798-9.794,11.867-16.635,22.053-16.635h124.528c4.849,0,9.356,2.18,12.367,5.981
			c3.01,3.801,4.1,8.688,2.99,13.408l-31.046,131.944H0V479h512v-89.295h-59.667V217.038H482v59.667h30v-59.667v-94V63.371H482z
			 M377.667,363.547l-21.213-21.213l21.213-21.213l21.213,21.213L377.667,363.547z"/>
	</g>
</g>
<g>
</g>
<g>
</g>
<g>
</g>
<g>
</g>
<g>
</g>
<g>
</g>
<g>
</g>
<g>
</g>
<g>
</g>
<g>
</g>
<g>
</g>
<g>
</g>
<g>
</g>
<g>
</g>
<g>
</g>
</svg>
