<?xml version="1.0" encoding="iso-8859-1"?>
<!-- Generator: Adobe Illustrator 19.0.0, SVG Export Plug-In . SVG Version: 6.00 Build 0)  -->
<svg version="1.1" id="Capa_1" xmlns="http://www.w3.org/2000/svg" xmlns:xlink="http://www.w3.org/1999/xlink" x="0px" y="0px"
	 viewBox="0 0 512 512" style="enable-background:new 0 0 512 512;" xml:space="preserve">
<g>
	<g>
		<path d="M475.447,308.714c-22.196-18.687-50.338-25.495-73.707-27.5c-3.77,2.637-9.855,7.399-16.171,14.336
			c-3.89,4.291-7.87,9.404-11.449,15.379c-9.133,15.249-15.62,36.042-11.289,62.709h116.786h15.329h15.249
			C505.985,346.39,494.335,324.614,475.447,308.714z"/>
	</g>
</g>
<g>
	<g>
		<polygon points="349.457,403.715 23.289,216.099 0,251.789 334.75,446.153 512,446.153 512,403.715 		"/>
	</g>
</g>
<g>
	<g>
		<path d="M344.815,245.443l-12.452,8.441v0.01l-12.472,8.451L288.693,283.5l-16.883-24.903l32.392-21.966l12.462-8.451
			l12.462-8.441l-10.096-16.542l-12.512,8.361l-12.522,8.361l-30.297,20.241l-16.702-25.013l31.32-20.923l12.512-8.361l12.522-8.361
			l-17.855-29.244l-7.178-13.975l-12.792,8.552c-2.125,0.822-16.602,5.654-48.222-1.414c-30.397-6.787-70.178-46.077-82.941-60.634
			l-13.063-14.938L39.741,190.865l13.053,7.509l13.063,7.519l265.514,152.728c-0.291-22.627,5.524-41.365,13.083-56.052
			c2.757-5.374,5.745-10.216,8.762-14.507c0.862-1.223,1.724-2.406,2.587-3.549c2.436-3.228,4.933-6.206,7.409-8.933
			L344.815,245.443z"/>
	</g>
</g>
<g>
</g>
<g>
</g>
<g>
</g>
<g>
</g>
<g>
</g>
<g>
</g>
<g>
</g>
<g>
</g>
<g>
</g>
<g>
</g>
<g>
</g>
<g>
</g>
<g>
</g>
<g>
</g>
<g>
</g>
</svg>
