<?xml version="1.0" encoding="iso-8859-1"?>
<!-- Generator: Adobe Illustrator 19.0.0, SVG Export Plug-In . SVG Version: 6.00 Build 0)  -->
<svg version="1.1" id="Capa_1" xmlns="http://www.w3.org/2000/svg" xmlns:xlink="http://www.w3.org/1999/xlink" x="0px" y="0px"
	 viewBox="0 0 512 512" style="enable-background:new 0 0 512 512;" xml:space="preserve">
<g>
	<g>
		<rect x="205.65" y="195.25" width="111.53" height="34.5"/>
	</g>
</g>
<g>
	<g>
		<path d="M347.18,195.255v109.49h-30v-44.99H205.65v44.99h-30v-109.49H0v299.98h512v-299.98H347.18z M429.23,438.795
			c-15.19,8.91-34,8.81-49.09-0.27l-14.54-8.74c-5.69-3.42-12.77-3.46-18.5-0.1l-15.54,9.11c-7.52,4.41-15.92,6.61-24.32,6.61
			c-8.58,0-17.15-2.29-24.78-6.88l-14.54-8.74c-5.68-3.42-12.77-3.46-18.49-0.1l-15.55,9.11c-15.19,8.91-34,8.81-49.09-0.27
			l-14.54-8.74c-5.69-3.42-12.77-3.46-18.5-0.1l-15.54,9.11c-15.19,8.91-34,8.81-49.1-0.27l-14.44-8.68l15.46-25.71l14.44,8.68
			c5.68,3.41,12.75,3.45,18.46,0.1l15.55-9.11c15.2-8.92,34.02-8.81,49.13,0.27l14.54,8.74c5.67,3.42,12.75,3.45,18.46,0.1
			l15.54-9.11c15.2-8.92,34.03-8.81,49.13,0.27l14.54,8.74c5.68,3.42,12.75,3.45,18.46,0.1l15.55-9.11
			c15.2-8.92,34.02-8.81,49.12,0.27l14.55,8.74c5.67,3.41,12.75,3.45,18.46,0.1l15.56-9.12l15.17,25.88L429.23,438.795z
			 M429.23,363.465c-15.19,8.9-34,8.8-49.09-0.27l-14.54-8.75c-5.69-3.41-12.78-3.45-18.5-0.1l-15.54,9.12
			c-7.52,4.4-15.92,6.61-24.32,6.61c-8.58,0-17.15-2.3-24.78-6.88l-14.54-8.75c-5.68-3.41-12.77-3.45-18.49-0.1l-15.55,9.12
			c-15.19,8.9-34,8.8-49.09-0.27l-14.54-8.75c-5.69-3.42-12.78-3.45-18.5-0.1l-15.54,9.12c-15.19,8.9-34,8.8-49.1-0.27l-14.44-8.69
			l15.46-25.71l14.44,8.69c5.68,3.41,12.75,3.45,18.46,0.1l15.55-9.12c15.2-8.91,34.02-8.81,49.13,0.27l14.54,8.75
			c5.67,3.41,12.75,3.45,18.46,0.1l15.54-9.12c15.2-8.91,34.03-8.81,49.13,0.27l14.54,8.75c5.68,3.41,12.75,3.45,18.46,0.1
			l15.55-9.12c15.2-8.91,34.02-8.81,49.12,0.27l14.55,8.75c5.67,3.41,12.75,3.45,18.46,0.1l15.56-9.13l15.17,25.88L429.23,363.465z"
			/>
	</g>
</g>
<g>
	<g>
		<path d="M147.9,16.765c-31.84,0-57.75,25.9-57.75,57.74v30.75h30v-30.75c0-15.29,12.45-27.74,27.75-27.74
			c15.3,0,27.75,12.45,27.75,27.74v90.75h30v-90.75C205.65,42.665,179.74,16.765,147.9,16.765z"/>
	</g>
</g>
<g>
	<g>
		<path d="M289.43,16.765c-31.84,0-57.75,25.9-57.75,57.74v30.75h30v-30.75c0-15.29,12.45-27.74,27.75-27.74
			s27.75,12.45,27.75,27.74v90.75h30v-90.75C347.18,42.665,321.27,16.765,289.43,16.765z"/>
	</g>
</g>
<g>
</g>
<g>
</g>
<g>
</g>
<g>
</g>
<g>
</g>
<g>
</g>
<g>
</g>
<g>
</g>
<g>
</g>
<g>
</g>
<g>
</g>
<g>
</g>
<g>
</g>
<g>
</g>
<g>
</g>
</svg>
