<?xml version="1.0" encoding="iso-8859-1"?>
<!-- Generator: Adobe Illustrator 19.0.0, SVG Export Plug-In . SVG Version: 6.00 Build 0)  -->
<svg version="1.1" id="Capa_1" xmlns="http://www.w3.org/2000/svg" xmlns:xlink="http://www.w3.org/1999/xlink" x="0px" y="0px"
	 viewBox="0 0 511.999 511.999" style="enable-background:new 0 0 511.999 511.999;" xml:space="preserve">
<g>
	<g>
		<path d="M279.899,36.192l-36.857,105.13h40.07v87.675c13.398-8.042,33.397-12.59,58.681-2.197
			c39.471,16.223,44.553,49.496,41.725,64.822l-29.513-5.445l-0.042,0.246c0.008-0.055,0.781-5.546-1.674-12.034
			c-3.218-8.507-10.588-15.179-21.904-19.83c-26.873-11.048-38.255,5.702-38.367,5.872l-8.906-5.842v61.393
			c0,6.799-0.323,13.572-0.946,20.298c13.699,9.041,29.494,14.079,46.012,14.599c1.386,0.044,2.763,0.066,4.143,0.066
			c33.175,0,64.444-12.758,90.666-37.049c19.567-18.138,34.698-41.401,43.754-67.266l45.258-129.069L279.899,36.192z
			 M338.363,169.976l-38.088-13.352l9.928-28.322l38.088,13.352L338.363,169.976z M420.888,198.906L382.8,185.553l9.929-28.322
			l38.087,13.353L420.888,198.906z"/>
	</g>
</g>
<g>
	<g>
		<path d="M0,171.332v144.474c0,30.458,7.245,60.257,20.95,86.176c18.725,35.409,45.988,58.969,81.033,70.025
			c16.073,5.069,33.063,5.069,49.136-0.001c35.045-11.054,62.309-34.613,81.034-70.023c13.706-25.919,20.95-55.658,20.95-86.002
			V171.332H0z M42.764,272.157v-30.011h52.918v30.011H42.764z M189.929,397.052c-10.321,12.007-29.76,26.32-63.748,26.32
			c-34.065,0-53.321-14.375-63.477-26.436c-11.078-13.155-13.889-26.446-14.173-27.919l29.467-5.686l-0.037-0.185
			c0.682,3.093,7.827,30.213,48.22,30.213c40.603,0,48.272-27.339,49.014-30.457l-0.04,0.18l29.367,6.182
			C204.213,370.731,201.183,383.961,189.929,397.052z M210.338,272.157H157.42v-30.011h52.918V272.157z"/>
	</g>
</g>
<g>
</g>
<g>
</g>
<g>
</g>
<g>
</g>
<g>
</g>
<g>
</g>
<g>
</g>
<g>
</g>
<g>
</g>
<g>
</g>
<g>
</g>
<g>
</g>
<g>
</g>
<g>
</g>
<g>
</g>
</svg>
