<?xml version="1.0" encoding="iso-8859-1"?>
<!-- Generator: Adobe Illustrator 19.0.0, SVG Export Plug-In . SVG Version: 6.00 Build 0)  -->
<svg version="1.1" id="Capa_1" xmlns="http://www.w3.org/2000/svg" xmlns:xlink="http://www.w3.org/1999/xlink" x="0px" y="0px"
	 viewBox="0 0 512 512" style="enable-background:new 0 0 512 512;" xml:space="preserve">
<g>
	<g>
		<path d="M338.267,159.645c0-6.734,1.366-13.154,3.835-19h-44.394c2.469,5.846,3.835,12.266,3.835,19v5.18
			c0,6.734-1.367,13.154-3.835,19h44.394c-2.469-5.846-3.835-12.266-3.835-19V159.645z"/>
	</g>
</g>
<g>
	<g>
		<polygon points="0,61.192 0,263.279 98.333,232.171 98.333,92.299 		"/>
	</g>
</g>
<g>
	<g>
		<path d="M252.543,140.645h-5.18c-10.477,0-19,8.523-19,19v5.18c0,10.477,8.523,19,19,19h5.18c10.476,0,19-8.523,19-19v-5.18
			C271.543,149.169,263.019,140.645,252.543,140.645z"/>
	</g>
</g>
<g>
	<g>
		<path d="M449.391,48.195H190.419c-31.475,0-57.589,23.35-61.956,53.636l-0.129-0.041v120.891l0.129-0.041
			c4.367,30.285,30.481,53.636,61.956,53.636h50.991v58.094h30.715l-72.487,111.338l25.142,16.368l80.124-123.07v124.798h30v-124.17
			l79.715,122.442l25.141-16.368L367.274,334.37H398.4v-58.094h50.991c34.522,0,62.609-28.087,62.609-62.61v-102.86
			C512,76.283,483.913,48.195,449.391,48.195z M441.447,164.825L441.447,164.825c-0.001,27.018-21.982,49-49.001,49h-5.18H252.543
			h-5.18c-27.019,0-49-21.982-49-49v-5.18c0-27.019,21.981-49,49-49h5.18h134.724h5.18c27.019,0,49,21.981,49,49V164.825z"/>
	</g>
</g>
<g>
	<g>
		<path d="M392.446,140.645h-5.18c-10.477,0-19,8.523-19,19v5.18c0,10.477,8.523,19,19,19h5.18c10.477,0,19-8.523,19-19v-5.18
			C411.446,149.169,402.923,140.645,392.446,140.645z"/>
	</g>
</g>
<g>
</g>
<g>
</g>
<g>
</g>
<g>
</g>
<g>
</g>
<g>
</g>
<g>
</g>
<g>
</g>
<g>
</g>
<g>
</g>
<g>
</g>
<g>
</g>
<g>
</g>
<g>
</g>
<g>
</g>
</svg>
